{
  "accessors": [
    {
      "bufferView": 2,
      "componentType": 5126,
      "count": 65533,
      "max": [
        -28.83342742919922,
        3.6620430946350098,
        37.35301971435547
      ],
      "min": [
        -61.33642578125,
        -24.758554458618164,
        0.34172099828720093
      ],
      "type": "VEC3"
    },
    {
      "bufferView": 2,
      "byteOffset": 786396,
      "componentType": 5126,
      "count": 65533,
      "max": [
        0.9999653697013855,
        0.9999556541442871,
        0.9999868869781494
      ],
      "min": [
        -0.9999175071716309,
        -0.999954342842102,
        -0.9991140961647034
      ],
      "type": "VEC3"
    },
    {
      "bufferView": 3,
      "componentType": 5126,
      "count": 65533,
      "max": [
        0.9999862313270569,
        0.9999545812606812,
        1.0,
        1.0
      ],
      "min": [
        -0.9999325275421143,
        -0.9999812841415405,
        -1.0,
        -1.0
      ],
      "type": "VEC4"
    },
    {
      "bufferView": 1,
      "componentType": 5126,
      "count": 65533,
      "max": [
        1.0167020559310913,
        1.0199639797210693
      ],
      "min": [
        -0.00343000004068017,
        -0.33426299691200256
      ],
      "type": "VEC2"
    },
    {
      "bufferView": 0,
      "componentType": 5125,
      "count": 65640,
      "type": "SCALAR"
    },
    {
      "bufferView": 2,
      "byteOffset": 1572792,
      "componentType": 5126,
      "count": 65532,
      "max": [
        -28.83342742919922,
        3.0205020904541016,
        36.97301483154297
      ],
      "min": [
        -61.33642578125,
        -24.758554458618164,
        0.34220099449157715
      ],
      "type": "VEC3"
    },
    {
      "bufferView": 2,
      "byteOffset": 2359176,
      "componentType": 5126,
      "count": 65532,
      "max": [
        0.9999971389770508,
        0.9998782277107239,
        0.9999823570251465
      ],
      "min": [
        -0.9999924898147583,
        -0.999983012676239,
        -0.9988380074501038
      ],
      "type": "VEC3"
    },
    {
      "bufferView": 3,
      "byteOffset": 1048528,
      "componentType": 5126,
      "count": 65532,
      "max": [
        0.9999266266822815,
        0.9999971389770508,
        0.9995019435882568,
        1.0
      ],
      "min": [
        -0.99994957447052,
        -0.9999924898147583,
        -0.9999004602432251,
        -1.0
      ],
      "type": "VEC4"
    },
    {
      "bufferView": 1,
      "byteOffset": 524264,
      "componentType": 5126,
      "count": 65532,
      "max": [
        1.0167020559310913,
        1.0154720544815063
      ],
      "min": [
        -0.017105000093579292,
        -0.33436599373817444
      ],
      "type": "VEC2"
    },
    {
      "bufferView": 0,
      "byteOffset": 262560,
      "componentType": 5125,
      "count": 65571,
      "type": "SCALAR"
    },
    {
      "bufferView": 2,
      "byteOffset": 3145560,
      "componentType": 5126,
      "count": 65534,
      "max": [
        6.415641784667969,
        25.994592666625977,
        38.064762115478516
      ],
      "min": [
        -60.652549743652344,
        -24.41334342956543,
        0.34172099828720093
      ],
      "type": "VEC3"
    },
    {
      "bufferView": 2,
      "byteOffset": 3931968,
      "componentType": 5126,
      "count": 65534,
      "max": [
        0.9999575018882751,
        0.9999521374702454,
        0.9999926686286926
      ],
      "min": [
        -0.9999129772186279,
        -0.9999257326126099,
        -0.999588668346405
      ],
      "type": "VEC3"
    },
    {
      "bufferView": 3,
      "byteOffset": 2097040,
      "componentType": 5126,
      "count": 65534,
      "max": [
        0.9999268651008606,
        0.999997615814209,
        1.0,
        1.0
      ],
      "min": [
        -0.9999998211860657,
        -0.9999707341194153,
        -1.0,
        -1.0
      ],
      "type": "VEC4"
    },
    {
      "bufferView": 1,
      "byteOffset": 1048520,
      "componentType": 5126,
      "count": 65534,
      "max": [
        1.0160410404205322,
        1.0199639797210693
      ],
      "min": [
        -0.017105000093579292,
        -0.33436599373817444
      ],
      "type": "VEC2"
    },
    {
      "bufferView": 0,
      "byteOffset": 524844,
      "componentType": 5125,
      "count": 65607,
      "type": "SCALAR"
    },
    {
      "bufferView": 2,
      "byteOffset": 4718376,
      "componentType": 5126,
      "count": 65532,
      "max": [
        6.415641784667969,
        25.994592666625977,
        38.798580169677734
      ],
      "min": [
        -23.755645751953125,
        -7.3890228271484375,
        0.35494598746299744
      ],
      "type": "VEC3"
    },
    {
      "bufferView": 2,
      "byteOffset": 5504760,
      "componentType": 5126,
      "count": 65532,
      "max": [
        0.9999614953994751,
        0.9999432563781738,
        0.9999854564666748
      ],
      "min": [
        -0.9999971389770508,
        -0.9999982118606567,
        -0.9988362193107605
      ],
      "type": "VEC3"
    },
    {
      "bufferView": 3,
      "byteOffset": 3145584,
      "componentType": 5126,
      "count": 65532,
      "max": [
        0.9999575018882751,
        0.9999064207077026,
        0.9999141693115234,
        1.0
      ],
      "min": [
        -0.9999566674232483,
        -0.9999971389770508,
        -0.9999339580535889,
        -1.0
      ],
      "type": "VEC4"
    },
    {
      "bufferView": 1,
      "byteOffset": 1572792,
      "componentType": 5126,
      "count": 65532,
      "max": [
        1.0167020559310913,
        1.0154720544815063
      ],
      "min": [
        -0.017105000093579292,
        -0.33426299691200256
      ],
      "type": "VEC2"
    },
    {
      "bufferView": 0,
      "byteOffset": 787272,
      "componentType": 5125,
      "count": 65589,
      "type": "SCALAR"
    },
    {
      "bufferView": 2,
      "byteOffset": 6291144,
      "componentType": 5126,
      "count": 65532,
      "max": [
        5.878517150878906,
        25.430395126342773,
        38.40386962890625
      ],
      "min": [
        -23.19322967529297,
        -7.036962985992432,
        0.3554440140724182
      ],
      "type": "VEC3"
    },
    {
      "bufferView": 2,
      "byteOffset": 7077528,
      "componentType": 5126,
      "count": 65532,
      "max": [
        0.9999904632568359,
        0.9999061226844788,
        0.9999470114707947
      ],
      "min": [
        -0.9998884797096252,
        -0.9999164938926697,
        -0.9988034963607788
      ],
      "type": "VEC3"
    },
    {
      "bufferView": 3,
      "byteOffset": 4194096,
      "componentType": 5126,
      "count": 65532,
      "max": [
        0.9999356269836426,
        0.9999904632568359,
        0.9995939135551453,
        1.0
      ],
      "min": [
        -0.9998593330383301,
        -0.9999415874481201,
        -0.9998177289962769,
        -1.0
      ],
      "type": "VEC4"
    },
    {
      "bufferView": 1,
      "byteOffset": 2097048,
      "componentType": 5126,
      "count": 65532,
      "max": [
        1.0167020559310913,
        1.0136879682540894
      ],
      "min": [
        -0.017105000093579292,
        -0.33436599373817444
      ],
      "type": "VEC2"
    },
    {
      "bufferView": 0,
      "byteOffset": 1049628,
      "componentType": 5125,
      "count": 65556,
      "type": "SCALAR"
    },
    {
      "bufferView": 2,
      "byteOffset": 7863912,
      "componentType": 5126,
      "count": 65534,
      "max": [
        5.938126087188721,
        25.315275192260742,
        38.798580169677734
      ],
      "min": [
        -31.96503448486328,
        -32.19325256347656,
        0.35494598746299744
      ],
      "type": "VEC3"
    },
    {
      "bufferView": 2,
      "byteOffset": 8650320,
      "componentType": 5126,
      "count": 65534,
      "max": [
        0.9999669790267944,
        0.9999479055404663,
        0.999986469745636
      ],
      "min": [
        -0.9999375939369202,
        -0.9999152421951294,
        -0.9996394515037537
      ],
      "type": "VEC3"
    },
    {
      "bufferView": 3,
      "byteOffset": 5242608,
      "componentType": 5126,
      "count": 65534,
      "max": [
        0.9998608827590942,
        0.9999557733535767,
        1.0,
        1.0
      ],
      "min": [
        -0.9999940395355225,
        -0.9999375343322754,
        -1.0,
        -1.0
      ],
      "type": "VEC4"
    },
    {
      "bufferView": 1,
      "byteOffset": 2621304,
      "componentType": 5126,
      "count": 65534,
      "max": [
        1.0167020559310913,
        1.0199639797210693
      ],
      "min": [
        0.0015750000020489097,
        -0.33436599373817444
      ],
      "type": "VEC2"
    },
    {
      "bufferView": 0,
      "byteOffset": 1311852,
      "componentType": 5125,
      "count": 65619,
      "type": "SCALAR"
    },
    {
      "bufferView": 2,
      "byteOffset": 9436728,
      "componentType": 5126,
      "count": 65533,
      "max": [
        1.6090389490127563,
        -2.215411901473999,
        38.798580169677734
      ],
      "min": [
        -31.96503448486328,
        -31.66644287109375,
        0.35494598746299744
      ],
      "type": "VEC3"
    },
    {
      "bufferView": 2,
      "byteOffset": 10223124,
      "componentType": 5126,
      "count": 65533,
      "max": [
        0.9999528527259827,
        0.9999168515205383,
        0.9999777674674988
      ],
      "min": [
        -0.9999905824661255,
        -0.9999995827674866,
        -0.9987992644309998
      ],
      "type": "VEC3"
    },
    {
      "bufferView": 3,
      "byteOffset": 6291152,
      "componentType": 5126,
      "count": 65533,
      "max": [
        0.9999873042106628,
        0.9998701214790344,
        0.9980429410934448,
        1.0
      ],
      "min": [
        -0.9999819397926331,
        -0.9999905824661255,
        -0.9999004602432251,
        -1.0
      ],
      "type": "VEC4"
    },
    {
      "bufferView": 1,
      "byteOffset": 3145576,
      "componentType": 5126,
      "count": 65533,
      "max": [
        1.0167020559310913,
        1.0154720544815063
      ],
      "min": [
        -0.017105000093579292,
        -0.33436599373817444
      ],
      "type": "VEC2"
    },
    {
      "bufferView": 0,
      "byteOffset": 1574328,
      "componentType": 5125,
      "count": 65562,
      "type": "SCALAR"
    },
    {
      "bufferView": 2,
      "byteOffset": 11009520,
      "componentType": 5126,
      "count": 65534,
      "max": [
        0.9302099943161011,
        -2.620435953140259,
        38.40386962890625
      ],
      "min": [
        -31.279556274414063,
        -31.701202392578125,
        0.35494598746299744
      ],
      "type": "VEC3"
    },
    {
      "bufferView": 2,
      "byteOffset": 11795928,
      "componentType": 5126,
      "count": 65534,
      "max": [
        0.9999904632568359,
        0.9999511241912842,
        0.9999926686286926
      ],
      "min": [
        -0.9999454617500305,
        -0.9999152421951294,
        -0.9993502497673035
      ],
      "type": "VEC3"
    },
    {
      "bufferView": 3,
      "byteOffset": 7339680,
      "componentType": 5126,
      "count": 65534,
      "max": [
        0.9999411106109619,
        0.9999904632568359,
        0.9995700120925903,
        1.0
      ],
      "min": [
        -0.9999305009841919,
        -0.9999817609786987,
        -0.999066948890686,
        -1.0
      ],
      "type": "VEC4"
    },
    {
      "bufferView": 1,
      "byteOffset": 3669840,
      "componentType": 5126,
      "count": 65534,
      "max": [
        1.0160410404205322,
        1.0136879682540894
      ],
      "min": [
        -0.017105000093579292,
        -0.33436599373817444
      ],
      "type": "VEC2"
    },
    {
      "bufferView": 0,
      "byteOffset": 1836576,
      "componentType": 5125,
      "count": 65574,
      "type": "SCALAR"
    },
    {
      "bufferView": 2,
      "byteOffset": 12582336,
      "componentType": 5126,
      "count": 65534,
      "max": [
        -4.3687357902526855,
        34.15093994140625,
        45.87080383300781
      ],
      "min": [
        -59.66389465332031,
        -29.647823333740234,
        0.4196470081806183
      ],
      "type": "VEC3"
    },
    {
      "bufferView": 2,
      "byteOffset": 13368744,
      "componentType": 5126,
      "count": 65534,
      "max": [
        0.9999197721481323,
        0.9999662637710571,
        0.9999836087226868
      ],
      "min": [
        -0.9999405741691589,
        -0.9999273419380188,
        -0.9996554255485535
      ],
      "type": "VEC3"
    },
    {
      "bufferView": 3,
      "byteOffset": 8388224,
      "componentType": 5126,
      "count": 65534,
      "max": [
        0.9999963045120239,
        0.9999511241912842,
        1.0,
        1.0
      ],
      "min": [
        -0.9999997019767761,
        -0.9999440312385559,
        -1.0,
        -1.0
      ],
      "type": "VEC4"
    },
    {
      "bufferView": 1,
      "byteOffset": 4194112,
      "componentType": 5126,
      "count": 65534,
      "max": [
        1.0167020559310913,
        1.0199639797210693
      ],
      "min": [
        -0.00343000004068017,
        -0.33426299691200256
      ],
      "type": "VEC2"
    },
    {
      "bufferView": 0,
      "byteOffset": 2098872,
      "componentType": 5125,
      "count": 65637,
      "type": "SCALAR"
    },
    {
      "bufferView": 2,
      "byteOffset": 14155152,
      "componentType": 5126,
      "count": 65533,
      "max": [
        34.54032897949219,
        33.74114990234375,
        45.390892028808594
      ],
      "min": [
        -59.66389465332031,
        -5.750179767608643,
        0.39271900057792664
      ],
      "type": "VEC3"
    },
    {
      "bufferView": 2,
      "byteOffset": 14941548,
      "componentType": 5126,
      "count": 65533,
      "max": [
        0.9999656677246094,
        0.9999156594276428,
        0.9999776482582092
      ],
      "min": [
        -0.999995768070221,
        -0.9999828934669495,
        -0.99891197681427
      ],
      "type": "VEC3"
    },
    {
      "bufferView": 3,
      "byteOffset": 9436768,
      "componentType": 5126,
      "count": 65533,
      "max": [
        0.9999992847442627,
        0.9999638199806213,
        0.9997766613960266,
        1.0
      ],
      "min": [
        -0.9999850392341614,
        -0.9999958276748657,
        -0.9999181628227234,
        -1.0
      ],
      "type": "VEC4"
    },
    {
      "bufferView": 1,
      "byteOffset": 4718384,
      "componentType": 5126,
      "count": 65533,
      "max": [
        1.0167020559310913,
        1.0154720544815063
      ],
      "min": [
        -0.017105000093579292,
        -0.33436599373817444
      ],
      "type": "VEC2"
    },
    {
      "bufferView": 0,
      "byteOffset": 2361420,
      "componentType": 5125,
      "count": 65589,
      "type": "SCALAR"
    },
    {
      "bufferView": 2,
      "byteOffset": 15727944,
      "componentType": 5126,
      "count": 65532,
      "max": [
        33.718116760253906,
        25.71143913269043,
        41.33354568481445
      ],
      "min": [
        2.525459051132202,
        -29.71579360961914,
        0.35494598746299744
      ],
      "type": "VEC3"
    },
    {
      "bufferView": 2,
      "byteOffset": 16514328,
      "componentType": 5126,
      "count": 65532,
      "max": [
        0.9999112486839294,
        0.9999427795410156,
        0.9999907612800598
      ],
      "min": [
        -0.9999234676361084,
        -0.999954342842102,
        -0.9996573328971863
      ],
      "type": "VEC3"
    },
    {
      "bufferView": 3,
      "byteOffset": 10485296,
      "componentType": 5126,
      "count": 65532,
      "max": [
        0.9999819397926331,
        0.9999980330467224,
        1.0,
        1.0
      ],
      "min": [
        -0.9999265670776367,
        -0.9999853372573853,
        -1.0,
        -1.0
      ],
      "type": "VEC4"
    },
    {
      "bufferView": 1,
      "byteOffset": 5242648,
      "componentType": 5126,
      "count": 65532,
      "max": [
        1.0167020559310913,
        1.0199639797210693
      ],
      "min": [
        0.0015750000020489097,
        -0.33436599373817444
      ],
      "type": "VEC2"
    },
    {
      "bufferView": 0,
      "byteOffset": 2623776,
      "componentType": 5125,
      "count": 65643,
      "type": "SCALAR"
    },
    {
      "bufferView": 2,
      "byteOffset": 17300712,
      "componentType": 5126,
      "count": 65532,
      "max": [
        33.718116760253906,
        3.877614974975586,
        38.40386962890625
      ],
      "min": [
        4.3862528800964355,
        -29.71579360961914,
        0.3554440140724182
      ],
      "type": "VEC3"
    },
    {
      "bufferView": 2,
      "byteOffset": 18087096,
      "componentType": 5126,
      "count": 65532,
      "max": [
        0.999957263469696,
        0.9999303817749023,
        0.9999750256538391
      ],
      "min": [
        -0.9999904632568359,
        -1.0,
        -0.9988767504692078
      ],
      "type": "VEC3"
    },
    {
      "bufferView": 3,
      "byteOffset": 11533808,
      "componentType": 5126,
      "count": 65532,
      "max": [
        0.9998985528945923,
        0.9999318718910217,
        0.9997472763061523,
        1.0
      ],
      "min": [
        -0.9999532699584961,
        -0.9999904632568359,
        -0.9999366998672485,
        -1.0
      ],
      "type": "VEC4"
    },
    {
      "bufferView": 1,
      "byteOffset": 5766904,
      "componentType": 5126,
      "count": 65532,
      "max": [
        1.0167020559310913,
        1.0154720544815063
      ],
      "min": [
        -0.017105000093579292,
        -0.33436599373817444
      ],
      "type": "VEC2"
    },
    {
      "bufferView": 0,
      "byteOffset": 2886348,
      "componentType": 5125,
      "count": 65577,
      "type": "SCALAR"
    },
    {
      "bufferView": 2,
      "byteOffset": 18873480,
      "componentType": 5126,
      "count": 65532,
      "max": [
        59.228248596191406,
        3.1630539894104004,
        43.58146286010742
      ],
      "min": [
        4.261063098907471,
        -29.032955169677734,
        0.35494598746299744
      ],
      "type": "VEC3"
    },
    {
      "bufferView": 2,
      "byteOffset": 19659864,
      "componentType": 5126,
      "count": 65532,
      "max": [
        0.9999915361404419,
        0.999920666217804,
        0.9998354911804199
      ],
      "min": [
        -0.9998874664306641,
        -0.999906599521637,
        -0.9987317323684692
      ],
      "type": "VEC3"
    },
    {
      "bufferView": 3,
      "byteOffset": 12582320,
      "componentType": 5126,
      "count": 65532,
      "max": [
        0.999911367893219,
        0.999998152256012,
        0.9995582699775696,
        1.0
      ],
      "min": [
        -0.9999410510063171,
        -0.999923050403595,
        -0.9998003840446472,
        -1.0
      ],
      "type": "VEC4"
    },
    {
      "bufferView": 1,
      "byteOffset": 6291160,
      "componentType": 5126,
      "count": 65532,
      "max": [
        1.0167020559310913,
        1.0136879682540894
      ],
      "min": [
        -0.017105000093579292,
        -0.33436599373817444
      ],
      "type": "VEC2"
    },
    {
      "bufferView": 0,
      "byteOffset": 3148656,
      "componentType": 5125,
      "count": 65577,
      "type": "SCALAR"
    },
    {
      "bufferView": 2,
      "byteOffset": 20446248,
      "componentType": 5126,
      "count": 65533,
      "max": [
        59.243019104003906,
        0.8547189831733704,
        43.59418869018555
      ],
      "min": [
        29.265453338623047,
        -28.86787223815918,
        0.40291398763656616
      ],
      "type": "VEC3"
    },
    {
      "bufferView": 2,
      "byteOffset": 21232644,
      "componentType": 5126,
      "count": 65533,
      "max": [
        0.9999924898147583,
        0.9999173283576965,
        0.9999908804893494
      ],
      "min": [
        -0.9999904632568359,
        -0.9999003410339355,
        -0.9996374845504761
      ],
      "type": "VEC3"
    },
    {
      "bufferView": 3,
      "byteOffset": 13630832,
      "componentType": 5126,
      "count": 65533,
      "max": [
        0.9999675154685974,
        0.9999924898147583,
        0.9998993873596191,
        1.0
      ],
      "min": [
        -0.9999996423721313,
        -0.9999904632568359,
        -0.9993807673454285,
        -1.0
      ],
      "type": "VEC4"
    },
    {
      "bufferView": 1,
      "byteOffset": 6815416,
      "componentType": 5126,
      "count": 65533,
      "max": [
        1.0160410404205322,
        1.0139960050582886
      ],
      "min": [
        -0.017105000093579292,
        -0.33436599373817444
      ],
      "type": "VEC2"
    },
    {
      "bufferView": 0,
      "byteOffset": 3410964,
      "componentType": 5125,
      "count": 65646,
      "type": "SCALAR"
    },
    {
      "bufferView": 2,
      "byteOffset": 22019040,
      "componentType": 5126,
      "count": 65533,
      "max": [
        59.88396072387695,
        1.3225159645080566,
        44.04224395751953
      ],
      "min": [
        28.56491470336914,
        -29.13529396057129,
        0.40291398763656616
      ],
      "type": "VEC3"
    },
    {
      "bufferView": 2,
      "byteOffset": 22805436,
      "componentType": 5126,
      "count": 65533,
      "max": [
        0.9999570250511169,
        0.9999387860298157,
        0.9999833703041077
      ],
      "min": [
        -0.9998760223388672,
        -1.0,
        -0.9987972378730774
      ],
      "type": "VEC3"
    },
    {
      "bufferView": 3,
      "byteOffset": 14679360,
      "componentType": 5126,
      "count": 65533,
      "max": [
        0.9999402165412903,
        0.9999278783798218,
        0.9999263882637024,
        1.0
      ],
      "min": [
        -0.9999522566795349,
        -0.9999431371688843,
        -0.9999141693115234,
        -1.0
      ],
      "type": "VEC4"
    },
    {
      "bufferView": 1,
      "byteOffset": 7339680,
      "componentType": 5126,
      "count": 65533,
      "max": [
        1.0167020559310913,
        1.0154720544815063
      ],
      "min": [
        -0.017105000093579292,
        -0.33426299691200256
      ],
      "type": "VEC2"
    },
    {
      "bufferView": 0,
      "byteOffset": 3673548,
      "componentType": 5125,
      "count": 65571,
      "type": "SCALAR"
    },
    {
      "bufferView": 2,
      "byteOffset": 23591832,
      "componentType": 5126,
      "count": 65532,
      "max": [
        59.88396072387695,
        26.844640731811523,
        43.209251403808594
      ],
      "min": [
        1.7314000129699707,
        -29.070026397705078,
        0.35494598746299744
      ],
      "type": "VEC3"
    },
    {
      "bufferView": 2,
      "byteOffset": 24378216,
      "componentType": 5126,
      "count": 65532,
      "max": [
        0.999995768070221,
        0.9999405741691589,
        0.9999904632568359
      ],
      "min": [
        -0.999987006187439,
        -0.9999183416366577,
        -0.9996554851531982
      ],
      "type": "VEC3"
    },
    {
      "bufferView": 3,
      "byteOffset": 15727888,
      "componentType": 5126,
      "count": 65532,
      "max": [
        0.9999604225158691,
        0.9999983906745911,
        1.0,
        1.0
      ],
      "min": [
        -0.9999415278434753,
        -0.999987006187439,
        -1.0,
        -1.0
      ],
      "type": "VEC4"
    },
    {
      "bufferView": 1,
      "byteOffset": 7863944,
      "componentType": 5126,
      "count": 65532,
      "max": [
        1.0160410404205322,
        1.0199639797210693
      ],
      "min": [
        0.001551999943330884,
        -0.33436599373817444
      ],
      "type": "VEC2"
    },
    {
      "bufferView": 0,
      "byteOffset": 3935832,
      "componentType": 5125,
      "count": 65586,
      "type": "SCALAR"
    },
    {
      "bufferView": 2,
      "byteOffset": 25164600,
      "componentType": 5126,
      "count": 65533,
      "max": [
        35.31542205810547,
        27.369600296020508,
        42.92771911621094
      ],
      "min": [
        0.663241982460022,
        -6.337060928344727,
        0.39326998591423035
      ],
      "type": "VEC3"
    },
    {
      "bufferView": 2,
      "byteOffset": 25950996,
      "componentType": 5126,
      "count": 65533,
      "max": [
        0.999961256980896,
        0.9999064803123474,
        0.9999812245368958
      ],
      "min": [
        -0.9998942613601685,
        -1.0,
        -0.9987930059432983
      ],
      "type": "VEC3"
    },
    {
      "bufferView": 3,
      "byteOffset": 16776400,
      "componentType": 5126,
      "count": 65533,
      "max": [
        0.9999427795410156,
        0.9999991059303284,
        0.9998133778572083,
        1.0
      ],
      "min": [
        -0.9999359846115112,
        -0.9999592900276184,
        -0.9998940825462341,
        -1.0
      ],
      "type": "VEC4"
    },
    {
      "bufferView": 1,
      "byteOffset": 8388200,
      "componentType": 5126,
      "count": 65533,
      "max": [
        1.0167020559310913,
        1.0154720544815063
      ],
      "min": [
        -0.017105000093579292,
        -0.33436599373817444
      ],
      "type": "VEC2"
    },
    {
      "bufferView": 0,
      "byteOffset": 4198176,
      "componentType": 5125,
      "count": 65577,
      "type": "SCALAR"
    },
    {
      "bufferView": 2,
      "byteOffset": 26737392,
      "componentType": 5126,
      "count": 65534,
      "max": [
        62.523529052734375,
        29.9958438873291,
        42.92771911621094
      ],
      "min": [
        0.663241982460022,
        -6.2648468017578125,
        0.35494598746299744
      ],
      "type": "VEC3"
    },
    {
      "bufferView": 2,
      "byteOffset": 27523800,
      "componentType": 5126,
      "count": 65534,
      "max": [
        0.9999399781227112,
        0.9999399781227112,
        0.9999868869781494
      ],
      "min": [
        -0.9999263286590576,
        -0.9999532103538513,
        -0.9996339082717896
      ],
      "type": "VEC3"
    },
    {
      "bufferView": 3,
      "byteOffset": 17824928,
      "componentType": 5126,
      "count": 65534,
      "max": [
        0.9999785423278809,
        0.9999605417251587,
        1.0,
        1.0
      ],
      "min": [
        -0.9999420046806335,
        -0.9999798536300659,
        -1.0,
        -1.0
      ],
      "type": "VEC4"
    },
    {
      "bufferView": 1,
      "byteOffset": 8912464,
      "componentType": 5126,
      "count": 65534,
      "max": [
        1.0167020559310913,
        1.0199639797210693
      ],
      "min": [
        0.0015750000020489097,
        -0.33436599373817444
      ],
      "type": "VEC2"
    },
    {
      "bufferView": 0,
      "byteOffset": 4460484,
      "componentType": 5125,
      "count": 65604,
      "type": "SCALAR"
    },
    {
      "bufferView": 2,
      "byteOffset": 28310208,
      "componentType": 5126,
      "count": 65533,
      "max": [
        62.333778381347656,
        30.226503372192383,
        38.40386962890625
      ],
      "min": [
        33.85642623901367,
        -2.374687910079956,
        0.35494598746299744
      ],
      "type": "VEC3"
    },
    {
      "bufferView": 2,
      "byteOffset": 29096604,
      "componentType": 5126,
      "count": 65533,
      "max": [
        0.9999882578849792,
        0.9999185800552368,
        0.9999557733535767
      ],
      "min": [
        -0.9999942183494568,
        -0.9999278783798218,
        -0.9987733364105225
      ],
      "type": "VEC3"
    },
    {
      "bufferView": 3,
      "byteOffset": 18873472,
      "componentType": 5126,
      "count": 65533,
      "max": [
        0.9999969601631165,
        0.9999906420707703,
        0.9995559453964233,
        1.0
      ],
      "min": [
        -0.9999008178710938,
        -0.9999942779541016,
        -0.9999942183494568,
        -1.0
      ],
      "type": "VEC4"
    },
    {
      "bufferView": 1,
      "byteOffset": 9436736,
      "componentType": 5126,
      "count": 65533,
      "max": [
        1.0160410404205322,
        1.0136879682540894
      ],
      "min": [
        -0.017105000093579292,
        -0.33436599373817444
      ],
      "type": "VEC2"
    },
    {
      "bufferView": 0,
      "byteOffset": 4722900,
      "componentType": 5125,
      "count": 65613,
      "type": "SCALAR"
    },
    {
      "bufferView": 2,
      "byteOffset": 29883000,
      "componentType": 5126,
      "count": 65534,
      "max": [
        62.99812316894531,
        30.705904006958008,
        38.798580169677734
      ],
      "min": [
        33.50128936767578,
        -3.0600039958953857,
        0.35494598746299744
      ],
      "type": "VEC3"
    },
    {
      "bufferView": 2,
      "byteOffset": 30669408,
      "componentType": 5126,
      "count": 65534,
      "max": [
        0.9999657869338989,
        0.9999393820762634,
        0.999976634979248
      ],
      "min": [
        -0.9999048709869385,
        -1.0,
        -0.9988791346549988
      ],
      "type": "VEC3"
    },
    {
      "bufferView": 3,
      "byteOffset": 19922000,
      "componentType": 5126,
      "count": 65534,
      "max": [
        0.9999263286590576,
        0.9999975562095642,
        0.9994797706604004,
        1.0
      ],
      "min": [
        -0.9999926686286926,
        -0.9999706745147705,
        -0.9999009370803833,
        -1.0
      ],
      "type": "VEC4"
    },
    {
      "bufferView": 1,
      "byteOffset": 9961000,
      "componentType": 5126,
      "count": 65534,
      "max": [
        1.0167020559310913,
        1.0154720544815063
      ],
      "min": [
        -0.017105000093579292,
        -0.33436599373817444
      ],
      "type": "VEC2"
    },
    {
      "bufferView": 0,
      "byteOffset": 4985352,
      "componentType": 5125,
      "count": 65562,
      "type": "SCALAR"
    },
    {
      "bufferView": 2,
      "byteOffset": 31455816,
      "componentType": 5126,
      "count": 65533,
      "max": [
        62.99812316894531,
        33.62164306640625,
        45.390892028808594
      ],
      "min": [
        -58.868507385253906,
        -3.0600039958953857,
        0.4196470081806183
      ],
      "type": "VEC3"
    },
    {
      "bufferView": 2,
      "byteOffset": 32242212,
      "componentType": 5126,
      "count": 65533,
      "max": [
        0.9999534487724304,
        0.9999479055404663,
        0.9999967813491821
      ],
      "min": [
        -0.9999430179595947,
        -0.9999302625656128,
        -0.9996179938316345
      ],
      "type": "VEC3"
    },
    {
      "bufferView": 3,
      "byteOffset": 20970544,
      "componentType": 5126,
      "count": 65533,
      "max": [
        0.9999581575393677,
        0.9999597668647766,
        1.0,
        1.0
      ],
      "min": [
        -0.99998939037323,
        -0.999993622303009,
        -1.0,
        -1.0
      ],
      "type": "VEC4"
    },
    {
      "bufferView": 1,
      "byteOffset": 10485272,
      "componentType": 5126,
      "count": 65533,
      "max": [
        1.0167020559310913,
        1.0199639797210693
      ],
      "min": [
        -0.017105000093579292,
        -0.33436599373817444
      ],
      "type": "VEC2"
    },
    {
      "bufferView": 0,
      "byteOffset": 5247600,
      "componentType": 5125,
      "count": 65595,
      "type": "SCALAR"
    },
    {
      "bufferView": 2,
      "byteOffset": 33028608,
      "componentType": 5126,
      "count": 27797,
      "max": [
        -24.513153076171875,
        33.33857727050781,
        45.404144287109375
      ],
      "min": [
        -58.27671813964844,
        0.7061309814453125,
        0.42851999402046204
      ],
      "type": "VEC3"
    },
    {
      "bufferView": 2,
      "byteOffset": 33362172,
      "componentType": 5126,
      "count": 27797,
      "max": [
        0.9999995827674866,
        0.9998093843460083,
        0.9999224543571472
      ],
      "min": [
        -0.9998318552970886,
        -0.9997434616088867,
        -0.9962292313575745
      ],
      "type": "VEC3"
    },
    {
      "bufferView": 3,
      "byteOffset": 22019072,
      "componentType": 5126,
      "count": 27797,
      "max": [
        0.9999259114265442,
        0.9999995231628418,
        0.9993130564689636,
        1.0
      ],
      "min": [
        -0.9999725222587585,
        -0.999886691570282,
        -0.9994266629219055,
        -1.0
      ],
      "type": "VEC4"
    },
    {
      "bufferView": 1,
      "byteOffset": 11009536,
      "componentType": 5126,
      "count": 27797,
      "max": [
        1.006708025932312,
        1.012449026107788
      ],
      "min": [
        0.001551999943330884,
        -0.33436599373817444
      ],
      "type": "VEC2"
    },
    {
      "bufferView": 0,
      "byteOffset": 5509980,
      "componentType": 5125,
      "count": 27801,
      "type": "SCALAR"
    }
  ],
  "asset": {
    "extras": {
      "author": "Francesco Coldesina (https://sketchfab.com/topfrank2013)",
      "license": "CC-BY-4.0 (http://creativecommons.org/licenses/by/4.0/)",
      "source": "https://sketchfab.com/3d-models/maria-tach-field-97750e1a8d264eb8aa2caa28128ba1d1",
      "title": "Maria Tach Field"
    },
    "generator": "Sketchfab-12.65.0",
    "version": "2.0"
  },
  "bufferViews": [
    {
      "buffer": 0,
      "byteLength": 5621184,
      "name": "floatBufferViews",
      "target": 34963
    },
    {
      "buffer": 0,
      "byteLength": 11231912,
      "byteOffset": 5621184,
      "byteStride": 8,
      "name": "floatBufferViews",
      "target": 34962
    },
    {
      "buffer": 0,
      "byteLength": 33695736,
      "byteOffset": 16853096,
      "byteStride": 12,
      "name": "floatBufferViews",
      "target": 34962
    },
    {
      "buffer": 0,
      "byteLength": 22463824,
      "byteOffset": 50548832,
      "byteStride": 16,
      "name": "floatBufferViews",
      "target": 34962
    }
  ],
  "buffers": [
    {
      "byteLength": 73012656,
      "uri": "scene.bin"
    }
  ],
  "extensionsRequired": [
    "KHR_materials_pbrSpecularGlossiness"
  ],
  "extensionsUsed": [
    "KHR_materials_pbrSpecularGlossiness"
  ],
  "images": [
    {
      "uri": "textures/Maria_diffuse.jpeg"
    },
    {
      "uri": "textures/Maria_specularGlossiness.png"
    },
    {
      "uri": "textures/Maria_normal.png"
    },
    {
      "uri": "textures/Maria_occlusion.png"
    }
  ],
  "materials": [
    {
      "doubleSided": true,
      "emissiveTexture": {
        "index": 0
      },
      "extensions": {
        "KHR_materials_pbrSpecularGlossiness": {
          "diffuseFactor": [
            1.0,
            1.0,
            1.0,
            1.0
          ],
          "diffuseTexture": {
            "index": 0
          },
          "glossinessFactor": 1.0,
          "specularFactor": [
            0.1330625057,
            0.1330625057,
            0.1330625057
          ],
          "specularGlossinessTexture": {
            "index": 1
          }
        }
      },
      "name": "Maria",
      "normalTexture": {
        "index": 2
      },
      "occlusionTexture": {
        "index": 3
      }
    }
  ],
  "meshes": [
    {
      "name": "Object_0",
      "primitives": [
        {
          "attributes": {
            "NORMAL": 1,
            "POSITION": 0,
            "TANGENT": 2,
            "TEXCOORD_0": 3
          },
          "indices": 4,
          "material": 0,
          "mode": 4
        }
      ]
    },
    {
      "name": "Object_1",
      "primitives": [
        {
          "attributes": {
            "NORMAL": 6,
            "POSITION": 5,
            "TANGENT": 7,
            "TEXCOORD_0": 8
          },
          "indices": 9,
          "material": 0,
          "mode": 4
        }
      ]
    },
    {
      "name": "Object_2",
      "primitives": [
        {
          "attributes": {
            "NORMAL": 11,
            "POSITION": 10,
            "TANGENT": 12,
            "TEXCOORD_0": 13
          },
          "indices": 14,
          "material": 0,
          "mode": 4
        }
      ]
    },
    {
      "name": "Object_3",
      "primitives": [
        {
          "attributes": {
            "NORMAL": 16,
            "POSITION": 15,
            "TANGENT": 17,
            "TEXCOORD_0": 18
          },
          "indices": 19,
          "material": 0,
          "mode": 4
        }
      ]
    },
    {
      "name": "Object_4",
      "primitives": [
        {
          "attributes": {
            "NORMAL": 21,
            "POSITION": 20,
            "TANGENT": 22,
            "TEXCOORD_0": 23
          },
          "indices": 24,
          "material": 0,
          "mode": 4
        }
      ]
    },
    {
      "name": "Object_5",
      "primitives": [
        {
          "attributes": {
            "NORMAL": 26,
            "POSITION": 25,
            "TANGENT": 27,
            "TEXCOORD_0": 28
          },
          "indices": 29,
          "material": 0,
          "mode": 4
        }
      ]
    },
    {
      "name": "Object_6",
      "primitives": [
        {
          "attributes": {
            "NORMAL": 31,
            "POSITION": 30,
            "TANGENT": 32,
            "TEXCOORD_0": 33
          },
          "indices": 34,
          "material": 0,
          "mode": 4
        }
      ]
    },
    {
      "name": "Object_7",
      "primitives": [
        {
          "attributes": {
            "NORMAL": 36,
            "POSITION": 35,
            "TANGENT": 37,
            "TEXCOORD_0": 38
          },
          "indices": 39,
          "material": 0,
          "mode": 4
        }
      ]
    },
    {
      "name": "Object_8",
      "primitives": [
        {
          "attributes": {
            "NORMAL": 41,
            "POSITION": 40,
            "TANGENT": 42,
            "TEXCOORD_0": 43
          },
          "indices": 44,
          "material": 0,
          "mode": 4
        }
      ]
    },
    {
      "name": "Object_9",
      "primitives": [
        {
          "attributes": {
            "NORMAL": 46,
            "POSITION": 45,
            "TANGENT": 47,
            "TEXCOORD_0": 48
          },
          "indices": 49,
          "material": 0,
          "mode": 4
        }
      ]
    },
    {
      "name": "Object_10",
      "primitives": [
        {
          "attributes": {
            "NORMAL": 51,
            "POSITION": 50,
            "TANGENT": 52,
            "TEXCOORD_0": 53
          },
          "indices": 54,
          "material": 0,
          "mode": 4
        }
      ]
    },
    {
      "name": "Object_11",
      "primitives": [
        {
          "attributes": {
            "NORMAL": 56,
            "POSITION": 55,
            "TANGENT": 57,
            "TEXCOORD_0": 58
          },
          "indices": 59,
          "material": 0,
          "mode": 4
        }
      ]
    },
    {
      "name": "Object_12",
      "primitives": [
        {
          "attributes": {
            "NORMAL": 61,
            "POSITION": 60,
            "TANGENT": 62,
            "TEXCOORD_0": 63
          },
          "indices": 64,
          "material": 0,
          "mode": 4
        }
      ]
    },
    {
      "name": "Object_13",
      "primitives": [
        {
          "attributes": {
            "NORMAL": 66,
            "POSITION": 65,
            "TANGENT": 67,
            "TEXCOORD_0": 68
          },
          "indices": 69,
          "material": 0,
          "mode": 4
        }
      ]
    },
    {
      "name": "Object_14",
      "primitives": [
        {
          "attributes": {
            "NORMAL": 71,
            "POSITION": 70,
            "TANGENT": 72,
            "TEXCOORD_0": 73
          },
          "indices": 74,
          "material": 0,
          "mode": 4
        }
      ]
    },
    {
      "name": "Object_15",
      "primitives": [
        {
          "attributes": {
            "NORMAL": 76,
            "POSITION": 75,
            "TANGENT": 77,
            "TEXCOORD_0": 78
          },
          "indices": 79,
          "material": 0,
          "mode": 4
        }
      ]
    },
    {
      "name": "Object_16",
      "primitives": [
        {
          "attributes": {
            "NORMAL": 81,
            "POSITION": 80,
            "TANGENT": 82,
            "TEXCOORD_0": 83
          },
          "indices": 84,
          "material": 0,
          "mode": 4
        }
      ]
    },
    {
      "name": "Object_17",
      "primitives": [
        {
          "attributes": {
            "NORMAL": 86,
            "POSITION": 85,
            "TANGENT": 87,
            "TEXCOORD_0": 88
          },
          "indices": 89,
          "material": 0,
          "mode": 4
        }
      ]
    },
    {
      "name": "Object_18",
      "primitives": [
        {
          "attributes": {
            "NORMAL": 91,
            "POSITION": 90,
            "TANGENT": 92,
            "TEXCOORD_0": 93
          },
          "indices": 94,
          "material": 0,
          "mode": 4
        }
      ]
    },
    {
      "name": "Object_19",
      "primitives": [
        {
          "attributes": {
            "NORMAL": 96,
            "POSITION": 95,
            "TANGENT": 97,
            "TEXCOORD_0": 98
          },
          "indices": 99,
          "material": 0,
          "mode": 4
        }
      ]
    },
    {
      "name": "Object_20",
      "primitives": [
        {
          "attributes": {
            "NORMAL": 101,
            "POSITION": 100,
            "TANGENT": 102,
            "TEXCOORD_0": 103
          },
          "indices": 104,
          "material": 0,
          "mode": 4
        }
      ]
    },
    {
      "name": "Object_21",
      "primitives": [
        {
          "attributes": {
            "NORMAL": 106,
            "POSITION": 105,
            "TANGENT": 107,
            "TEXCOORD_0": 108
          },
          "indices": 109,
          "material": 0,
          "mode": 4
        }
      ]
    }
  ],
  "nodes": [
    {
      "children": [
        1
      ],
      "matrix": [
        1.0,
        0.0,
        0.0,
        0.0,
        0.0,
        2.220446049250313e-16,
        -1.0,
        0.0,
        0.0,
        1.0,
        2.220446049250313e-16,
        0.0,
        0.0,
        0.0,
        0.0,
        1.0
      ],
      "name": "Sketchfab_model"
    },
    {
      "children": [
        2,
        3,
        4,
        5,
        6,
        7,
        8,
        9,
        10,
        11,
        12,
        13,
        14,
        15,
        16,
        17,
        18,
        19,
        20,
        21,
        22,
        23
      ],
      "name": "Maria Tach.obj.cleaner.materialmerger.gles"
    },
    {
      "mesh": 0,
      "name": "Object_2"
    },
    {
      "mesh": 1,
      "name": "Object_3"
    },
    {
      "mesh": 2,
      "name": "Object_4"
    },
    {
      "mesh": 3,
      "name": "Object_5"
    },
    {
      "mesh": 4,
      "name": "Object_6"
    },
    {
      "mesh": 5,
      "name": "Object_7"
    },
    {
      "mesh": 6,
      "name": "Object_8"
    },
    {
      "mesh": 7,
      "name": "Object_9"
    },
    {
      "mesh": 8,
      "name": "Object_10"
    },
    {
      "mesh": 9,
      "name": "Object_11"
    },
    {
      "mesh": 10,
      "name": "Object_12"
    },
    {
      "mesh": 11,
      "name": "Object_13"
    },
    {
      "mesh": 12,
      "name": "Object_14"
    },
    {
      "mesh": 13,
      "name": "Object_15"
    },
    {
      "mesh": 14,
      "name": "Object_16"
    },
    {
      "mesh": 15,
      "name": "Object_17"
    },
    {
      "mesh": 16,
      "name": "Object_18"
    },
    {
      "mesh": 17,
      "name": "Object_19"
    },
    {
      "mesh": 18,
      "name": "Object_20"
    },
    {
      "mesh": 19,
      "name": "Object_21"
    },
    {
      "mesh": 20,
      "name": "Object_22"
    },
    {
      "mesh": 21,
      "name": "Object_23"
    }
  ],
  "samplers": [
    {
      "magFilter": 9729,
      "minFilter": 9987,
      "wrapS": 10497,
      "wrapT": 10497
    }
  ],
  "scene": 0,
  "scenes": [
    {
      "name": "Sketchfab_Scene",
      "nodes": [
        0
      ]
    }
  ],
  "textures": [
    {
      "sampler": 0,
      "source": 0
    },
    {
      "sampler": 0,
      "source": 1
    },
    {
      "sampler": 0,
      "source": 2
    },
    {
      "sampler": 0,
      "source": 3
    }
  ]
}
