{
  "accessors": [
    {
      "bufferView": 2,
      "componentType": 5126,
      "count": 963,
      "max": [
        18.232357025146484,
        11.499373435974121,
        104.6790771484375
      ],
      "min": [
        -18.159072875976563,
        -15.419822692871094,
        7.5531229972839355
      ],
      "type": "VEC3"
    },
    {
      "bufferView": 2,
      "byteOffset": 11556,
      "componentType": 5126,
      "count": 963,
      "max": [
        0.9992155432701111,
        0.9993007779121399,
        0.9869203567504883
      ],
      "min": [
        -0.9990107417106628,
        -0.9965606331825256,
        -0.9959083795547485
      ],
      "type": "VEC3"
    },
    {
      "bufferView": 3,
      "componentType": 5126,
      "count": 963,
      "max": [
        0.9988055229187012,
        0.9998219013214111,
        0.9839553833007813,
        1.0
      ],
      "min": [
        -0.9998303055763245,
        -0.9983437657356262,
        -0.9936049580574036,
        -1.0
      ],
      "type": "VEC4"
    },
    {
      "bufferView": 1,
      "componentType": 5126,
      "count": 963,
      "max": [
        0.49900001287460327,
        0.9971650242805481
      ],
      "min": [
        0.0037499999161809683,
        0.5113099813461304
      ],
      "type": "VEC2"
    },
    {
      "bufferView": 0,
      "componentType": 5125,
      "count": 4296,
      "type": "SCALAR"
    },
    {
      "bufferView": 2,
      "byteOffset": 23112,
      "componentType": 5126,
      "count": 10000,
      "max": [
        93.45557403564453,
        13.278848648071289,
        178.59083557128906
      ],
      "min": [
        -93.4500732421875,
        -16.010921478271484,
        0.0032579998951405287
      ],
      "type": "VEC3"
    },
    {
      "bufferView": 2,
      "byteOffset": 143112,
      "componentType": 5126,
      "count": 10000,
      "max": [
        0.9999459981918335,
        0.9999708533287048,
        0.999816358089447
      ],
      "min": [
        -0.9999281167984009,
        -0.9999210238456726,
        -0.9999902248382568
      ],
      "type": "VEC3"
    },
    {
      "bufferView": 3,
      "byteOffset": 15408,
      "componentType": 5126,
      "count": 10000,
      "max": [
        0.999998927116394,
        0.9999344348907471,
        0.99995356798172,
        1.0
      ],
      "min": [
        -0.9999868273735046,
        -0.999951958656311,
        -0.9999002814292908,
        -1.0
      ],
      "type": "VEC4"
    },
    {
      "bufferView": 1,
      "byteOffset": 7704,
      "componentType": 5126,
      "count": 10000,
      "max": [
        0.9924700260162354,
        0.9978560209274292
      ],
      "min": [
        0.004989999812096357,
        0.008089999668300152
      ],
      "type": "VEC2"
    },
    {
      "bufferView": 0,
      "byteOffset": 17184,
      "componentType": 5125,
      "count": 52446,
      "type": "SCALAR"
    },
    {
      "bufferView": 2,
      "byteOffset": 263112,
      "componentType": 5126,
      "count": 804,
      "max": [
        4.656889915466309,
        -7.285025119781494,
        169.1307373046875
      ],
      "min": [
        -4.656889915466309,
        -10.702008247375488,
        165.74606323242188
      ],
      "type": "VEC3"
    },
    {
      "bufferView": 2,
      "byteOffset": 272760,
      "componentType": 5126,
      "count": 804,
      "max": [
        0.9997690916061401,
        0.9995660185813904,
        0.9991790056228638
      ],
      "min": [
        -0.9997690916061401,
        -0.9989487528800964,
        -0.9985376596450806
      ],
      "type": "VEC3"
    },
    {
      "bufferView": 3,
      "byteOffset": 175408,
      "componentType": 5126,
      "count": 804,
      "max": [
        0.9992766976356506,
        0.997646152973175,
        0.6548861861228943,
        1.0
      ],
      "min": [
        -0.9999920129776001,
        -0.997646152973175,
        -0.6548586487770081,
        1.0
      ],
      "type": "VEC4"
    },
    {
      "bufferView": 1,
      "byteOffset": 87704,
      "componentType": 5126,
      "count": 804,
      "max": [
        0.5983250141143799,
        0.9982979893684387
      ],
      "min": [
        0.501675009727478,
        0.703918993473053
      ],
      "type": "VEC2"
    },
    {
      "bufferView": 0,
      "byteOffset": 226968,
      "componentType": 5125,
      "count": 4560,
      "type": "SCALAR"
    }
  ],
  "asset": {
    "extras": {
      "author": "samsikua (https://sketchfab.com/samsikua)",
      "license": "CC-BY-4.0 (http://creativecommons.org/licenses/by/4.0/)",
      "source": "https://sketchfab.com/3d-models/zombie-cb2c8555ecea4721acc4da7c0b555b57",
      "title": "Zombie"
    },
    "generator": "Sketchfab-13.74.0",
    "version": "2.0"
  },
  "bufferViews": [
    {
      "buffer": 0,
      "byteLength": 245208,
      "name": "floatBufferViews",
      "target": 34963
    },
    {
      "buffer": 0,
      "byteLength": 94136,
      "byteOffset": 245208,
      "byteStride": 8,
      "name": "floatBufferViews",
      "target": 34962
    },
    {
      "buffer": 0,
      "byteLength": 282408,
      "byteOffset": 339344,
      "byteStride": 12,
      "name": "floatBufferViews",
      "target": 34962
    },
    {
      "buffer": 0,
      "byteLength": 188272,
      "byteOffset": 621752,
      "byteStride": 16,
      "name": "floatBufferViews",
      "target": 34962
    }
  ],
  "buffers": [
    {
      "byteLength": 810024,
      "uri": "scene.bin"
    }
  ],
  "extensionsRequired": [
    "KHR_materials_pbrSpecularGlossiness"
  ],
  "extensionsUsed": [
    "KHR_materials_pbrSpecularGlossiness"
  ],
  "images": [
    {
      "uri": "textures/PackedMaterial0_diffuse.png"
    },
    {
      "uri": "textures/PackedMaterial0_specularGlossiness.png"
    },
    {
      "uri": "textures/PackedMaterial0_normal.png"
    },
    {
      "uri": "textures/PackedMaterial1_diffuse.png"
    },
    {
      "uri": "textures/PackedMaterial1_specularGlossiness.png"
    },
    {
      "uri": "textures/PackedMaterial1_normal.png"
    }
  ],
  "materials": [
    {
      "doubleSided": true,
      "extensions": {
        "KHR_materials_pbrSpecularGlossiness": {
          "diffuseFactor": [
            1.0,
            1.0,
            1.0,
            1.0
          ],
          "diffuseTexture": {
            "index": 0
          },
          "glossinessFactor": 0.0,
          "specularFactor": [
            0.05,
            0.05,
            0.05
          ],
          "specularGlossinessTexture": {
            "index": 1
          }
        }
      },
      "name": "PackedMaterial0",
      "normalTexture": {
        "index": 2
      }
    },
    {
      "doubleSided": true,
      "extensions": {
        "KHR_materials_pbrSpecularGlossiness": {
          "diffuseFactor": [
            1.0,
            1.0,
            1.0,
            1.0
          ],
          "diffuseTexture": {
            "index": 3
          },
          "glossinessFactor": 0.0,
          "specularFactor": [
            0.05,
            0.05,
            0.05
          ],
          "specularGlossinessTexture": {
            "index": 4
          }
        }
      },
      "name": "PackedMaterial1",
      "normalTexture": {
        "index": 5
      }
    }
  ],
  "meshes": [
    {
      "name": "Object_0",
      "primitives": [
        {
          "attributes": {
            "NORMAL": 1,
            "POSITION": 0,
            "TANGENT": 2,
            "TEXCOORD_0": 3
          },
          "indices": 4,
          "material": 1,
          "mode": 4
        }
      ]
    },
    {
      "name": "Object_1",
      "primitives": [
        {
          "attributes": {
            "NORMAL": 6,
            "POSITION": 5,
            "TANGENT": 7,
            "TEXCOORD_0": 8
          },
          "indices": 9,
          "material": 0,
          "mode": 4
        }
      ]
    },
    {
      "name": "Object_2",
      "primitives": [
        {
          "attributes": {
            "NORMAL": 11,
            "POSITION": 10,
            "TANGENT": 12,
            "TEXCOORD_0": 13
          },
          "indices": 14,
          "material": 0,
          "mode": 4
        }
      ]
    }
  ],
  "nodes": [
    {
      "children": [
        1
      ],
      "matrix": [
        1.0,
        0.0,
        0.0,
        0.0,
        0.0,
        2.220446049250313e-16,
        -1.0,
        0.0,
        0.0,
        1.0,
        2.220446049250313e-16,
        0.0,
        0.0,
        0.0,
        0.0,
        1.0
      ],
      "name": "Sketchfab_model"
    },
    {
      "children": [
        2,
        3,
        4
      ],
      "name": "Zombie001.obj.cleaner.materialmerger.gles"
    },
    {
      "mesh": 0,
      "name": "Object_2"
    },
    {
      "mesh": 1,
      "name": "Object_3"
    },
    {
      "mesh": 2,
      "name": "Object_4"
    }
  ],
  "samplers": [
    {
      "magFilter": 9729,
      "minFilter": 9987,
      "wrapS": 10497,
      "wrapT": 10497
    }
  ],
  "scene": 0,
  "scenes": [
    {
      "name": "Sketchfab_Scene",
      "nodes": [
        0
      ]
    }
  ],
  "textures": [
    {
      "sampler": 0,
      "source": 0
    },
    {
      "sampler": 0,
      "source": 1
    },
    {
      "sampler": 0,
      "source": 2
    },
    {
      "sampler": 0,
      "source": 3
    },
    {
      "sampler": 0,
      "source": 4
    },
    {
      "sampler": 0,
      "source": 5
    }
  ]
}
