{
  "accessors": [
    {
      "bufferView": 2,
      "componentType": 5126,
      "count": 441,
      "max": [
        109.25691223144531,
        0.0,
        241.0391082763672
      ],
      "min": [
        -109.25691223144531,
        0.0,
        -241.03912353515625
      ],
      "type": "VEC3"
    },
    {
      "bufferView": 2,
      "byteOffset": 5292,
      "componentType": 5126,
      "count": 441,
      "max": [
        0.0,
        1.0,
        -0.0
      ],
      "min": [
        0.0,
        1.0,
        -0.0
      ],
      "type": "VEC3"
    },
    {
      "bufferView": 1,
      "componentType": 5126,
      "count": 441,
      "max": [
        1.0,
        1.0
      ],
      "min": [
        0.0,
        0.0
      ],
      "type": "VEC2"
    },
    {
      "bufferView": 0,
      "componentType": 5125,
      "count": 2400,
      "type": "SCALAR"
    },
    {
      "bufferView": 2,
      "byteOffset": 10584,
      "componentType": 5126,
      "count": 441,
      "max": [
        109.25691223144531,
        0.0,
        241.0391082763672
      ],
      "min": [
        -109.25691223144531,
        0.0,
        -241.03912353515625
      ],
      "type": "VEC3"
    },
    {
      "bufferView": 2,
      "byteOffset": 15876,
      "componentType": 5126,
      "count": 441,
      "max": [
        0.0,
        1.0,
        -0.0
      ],
      "min": [
        0.0,
        1.0,
        -0.0
      ],
      "type": "VEC3"
    },
    {
      "bufferView": 1,
      "byteOffset": 3528,
      "componentType": 5126,
      "count": 441,
      "max": [
        1.0,
        1.0
      ],
      "min": [
        0.0,
        0.0
      ],
      "type": "VEC2"
    },
    {
      "bufferView": 0,
      "byteOffset": 9600,
      "componentType": 5125,
      "count": 2400,
      "type": "SCALAR"
    },
    {
      "bufferView": 2,
      "byteOffset": 21168,
      "componentType": 5126,
      "count": 441,
      "max": [
        109.25691223144531,
        0.0,
        228.27536010742188
      ],
      "min": [
        -109.25691223144531,
        0.0,
        -228.27537536621094
      ],
      "type": "VEC3"
    },
    {
      "bufferView": 2,
      "byteOffset": 26460,
      "componentType": 5126,
      "count": 441,
      "max": [
        0.0,
        1.0,
        -0.0
      ],
      "min": [
        0.0,
        1.0,
        -0.0
      ],
      "type": "VEC3"
    },
    {
      "bufferView": 1,
      "byteOffset": 7056,
      "componentType": 5126,
      "count": 441,
      "max": [
        1.0,
        1.0
      ],
      "min": [
        0.0,
        0.0
      ],
      "type": "VEC2"
    },
    {
      "bufferView": 0,
      "byteOffset": 19200,
      "componentType": 5125,
      "count": 2400,
      "type": "SCALAR"
    },
    {
      "bufferView": 2,
      "byteOffset": 31752,
      "componentType": 5126,
      "count": 145,
      "max": [
        2.5172064304351807,
        0.0,
        2.5172064304351807
      ],
      "min": [
        -2.5172064304351807,
        0.0,
        -2.5172064304351807
      ],
      "type": "VEC3"
    },
    {
      "bufferView": 2,
      "byteOffset": 33492,
      "componentType": 5126,
      "count": 145,
      "max": [
        0.0,
        1.0,
        -0.0
      ],
      "min": [
        0.0,
        1.0,
        -0.0
      ],
      "type": "VEC3"
    },
    {
      "bufferView": 1,
      "byteOffset": 10584,
      "componentType": 5126,
      "count": 145,
      "max": [
        1.0,
        1.0
      ],
      "min": [
        0.0,
        0.0
      ],
      "type": "VEC2"
    },
    {
      "bufferView": 0,
      "byteOffset": 28800,
      "componentType": 5125,
      "count": 756,
      "type": "SCALAR"
    },
    {
      "bufferView": 2,
      "byteOffset": 35232,
      "componentType": 5126,
      "count": 396,
      "max": [
        14.43730354309082,
        40.04338455200195,
        14.43730354309082
      ],
      "min": [
        -62.464542388916016,
        -4.088432312011719,
        -14.492643356323242
      ],
      "type": "VEC3"
    },
    {
      "bufferView": 2,
      "byteOffset": 39984,
      "componentType": 5126,
      "count": 396,
      "max": [
        1.0,
        0.999755859375,
        1.0
      ],
      "min": [
        -1.0,
        -1.0,
        -1.0
      ],
      "type": "VEC3"
    },
    {
      "bufferView": 1,
      "byteOffset": 11744,
      "componentType": 5126,
      "count": 396,
      "max": [
        1.0,
        1.0
      ],
      "min": [
        0.0,
        0.0
      ],
      "type": "VEC2"
    },
    {
      "bufferView": 0,
      "byteOffset": 31824,
      "componentType": 5125,
      "count": 1536,
      "type": "SCALAR"
    },
    {
      "bufferView": 2,
      "byteOffset": 44736,
      "componentType": 5126,
      "count": 148,
      "max": [
        4.269678592681885,
        15.472132682800293,
        4.269678592681885
      ],
      "min": [
        -4.269678592681885,
        -15.472132682800293,
        -4.269678592681885
      ],
      "type": "VEC3"
    },
    {
      "bufferView": 2,
      "byteOffset": 46512,
      "componentType": 5126,
      "count": 148,
      "max": [
        1.0,
        1.0,
        1.0
      ],
      "min": [
        -1.0,
        -1.0,
        -1.0
      ],
      "type": "VEC3"
    },
    {
      "bufferView": 1,
      "byteOffset": 14912,
      "componentType": 5126,
      "count": 148,
      "max": [
        1.0,
        1.0
      ],
      "min": [
        0.0,
        0.0
      ],
      "type": "VEC2"
    },
    {
      "bufferView": 0,
      "byteOffset": 37968,
      "componentType": 5125,
      "count": 432,
      "type": "SCALAR"
    },
    {
      "bufferView": 2,
      "byteOffset": 48288,
      "componentType": 5126,
      "count": 148,
      "max": [
        4.269678592681885,
        15.472132682800293,
        4.269678592681885
      ],
      "min": [
        -4.269678592681885,
        -15.472132682800293,
        -4.269678592681885
      ],
      "type": "VEC3"
    },
    {
      "bufferView": 2,
      "byteOffset": 50064,
      "componentType": 5126,
      "count": 148,
      "max": [
        1.0,
        1.0,
        1.0
      ],
      "min": [
        -1.0,
        -1.0,
        -1.0
      ],
      "type": "VEC3"
    },
    {
      "bufferView": 1,
      "byteOffset": 16096,
      "componentType": 5126,
      "count": 148,
      "max": [
        1.0,
        1.0
      ],
      "min": [
        0.0,
        0.0
      ],
      "type": "VEC2"
    },
    {
      "bufferView": 0,
      "byteOffset": 39696,
      "componentType": 5125,
      "count": 432,
      "type": "SCALAR"
    },
    {
      "bufferView": 2,
      "byteOffset": 51840,
      "componentType": 5126,
      "count": 179,
      "max": [
        20.16520881652832,
        0.0,
        247.17945861816406
      ],
      "min": [
        -218.28887939453125,
        -19.958154678344727,
        -267.4158935546875
      ],
      "type": "VEC3"
    },
    {
      "bufferView": 2,
      "byteOffset": 53988,
      "componentType": 5126,
      "count": 179,
      "max": [
        1.0,
        1.0,
        1.0
      ],
      "min": [
        -1.0,
        -1.0,
        -1.0
      ],
      "type": "VEC3"
    },
    {
      "bufferView": 1,
      "byteOffset": 17280,
      "componentType": 5126,
      "count": 179,
      "max": [
        1.0,
        1.0
      ],
      "min": [
        0.0,
        0.0
      ],
      "type": "VEC2"
    },
    {
      "bufferView": 0,
      "byteOffset": 41424,
      "componentType": 5125,
      "count": 285,
      "type": "SCALAR"
    },
    {
      "bufferView": 2,
      "byteOffset": 56136,
      "componentType": 5126,
      "count": 378,
      "max": [
        725.8480834960938,
        24.541786193847656,
        264.1276550292969
      ],
      "min": [
        -14.313645362854004,
        -0.26486092805862427,
        -271.7392272949219
      ],
      "type": "VEC3"
    },
    {
      "bufferView": 2,
      "byteOffset": 60672,
      "componentType": 5126,
      "count": 378,
      "max": [
        1.0,
        1.0,
        1.0
      ],
      "min": [
        -1.0,
        -1.0,
        -1.0
      ],
      "type": "VEC3"
    },
    {
      "bufferView": 1,
      "byteOffset": 18712,
      "componentType": 5126,
      "count": 378,
      "max": [
        1.0,
        1.0
      ],
      "min": [
        0.0,
        0.0
      ],
      "type": "VEC2"
    },
    {
      "bufferView": 0,
      "byteOffset": 42564,
      "componentType": 5125,
      "count": 693,
      "type": "SCALAR"
    }
  ],
  "asset": {
    "extras": {
      "author": "humoyun (https://sketchfab.com/humoyu)",
      "license": "CC-BY-4.0 (http://creativecommons.org/licenses/by/4.0/)",
      "source": "https://sketchfab.com/3d-models/window-dcca6a944c16426d8f775febae2d8ff4",
      "title": "Window"
    },
    "generator": "Sketchfab-14.87.0",
    "version": "2.0"
  },
  "bufferViews": [
    {
      "buffer": 0,
      "byteLength": 45336,
      "name": "floatBufferViews",
      "target": 34963
    },
    {
      "buffer": 0,
      "byteLength": 21736,
      "byteOffset": 45336,
      "byteStride": 8,
      "name": "floatBufferViews",
      "target": 34962
    },
    {
      "buffer": 0,
      "byteLength": 65208,
      "byteOffset": 67072,
      "byteStride": 12,
      "name": "floatBufferViews",
      "target": 34962
    }
  ],
  "buffers": [
    {
      "byteLength": 132280,
      "uri": "scene.bin"
    }
  ],
  "materials": [
    {
      "doubleSided": true,
      "name": "Disc__0",
      "pbrMetallicRoughness": {
        "metallicFactor": 0.0,
        "roughnessFactor": 0.6
      }
    },
    {
      "doubleSided": true,
      "name": "PBR.1",
      "pbrMetallicRoughness": {
        "baseColorFactor": [
          0.4896,
          0.85808,
          0.96,
          1.0
        ],
        "metallicFactor": 0.0,
        "roughnessFactor": 0.6
      }
    },
    {
      "doubleSided": true,
      "name": "material",
      "pbrMetallicRoughness": {
        "baseColorFactor": [
          0.0,
          0.0,
          0.0,
          1.0
        ],
        "metallicFactor": 0.0,
        "roughnessFactor": 0.6636414338985142
      }
    },
    {
      "doubleSided": true,
      "name": "PBR.2",
      "pbrMetallicRoughness": {
        "baseColorFactor": [
          0.0,
          0.0,
          0.0,
          1.0
        ],
        "metallicFactor": 0.0,
        "roughnessFactor": 0.6
      }
    }
  ],
  "meshes": [
    {
      "name": "Plane_4_PBR.1_0",
      "primitives": [
        {
          "attributes": {
            "NORMAL": 1,
            "POSITION": 0,
            "TEXCOORD_0": 2
          },
          "indices": 3,
          "material": 1,
          "mode": 4
        }
      ]
    },
    {
      "name": "Plane_3_PBR.1_0",
      "primitives": [
        {
          "attributes": {
            "NORMAL": 5,
            "POSITION": 4,
            "TEXCOORD_0": 6
          },
          "indices": 7,
          "material": 1,
          "mode": 4
        }
      ]
    },
    {
      "name": "Plane_2_PBR.1_0",
      "primitives": [
        {
          "attributes": {
            "NORMAL": 9,
            "POSITION": 8,
            "TEXCOORD_0": 10
          },
          "indices": 11,
          "material": 1,
          "mode": 4
        }
      ]
    },
    {
      "name": "Disc__0",
      "primitives": [
        {
          "attributes": {
            "NORMAL": 13,
            "POSITION": 12,
            "TEXCOORD_0": 14
          },
          "indices": 15,
          "material": 0,
          "mode": 4
        }
      ]
    },
    {
      "name": "Tube_PBR_0",
      "primitives": [
        {
          "attributes": {
            "NORMAL": 17,
            "POSITION": 16,
            "TEXCOORD_0": 18
          },
          "indices": 19,
          "material": 2,
          "mode": 4
        }
      ]
    },
    {
      "name": "Cylinder_1_PBR.2_0",
      "primitives": [
        {
          "attributes": {
            "NORMAL": 21,
            "POSITION": 20,
            "TEXCOORD_0": 22
          },
          "indices": 23,
          "material": 3,
          "mode": 4
        }
      ]
    },
    {
      "name": "Cylinder_PBR.2_0",
      "primitives": [
        {
          "attributes": {
            "NORMAL": 25,
            "POSITION": 24,
            "TEXCOORD_0": 26
          },
          "indices": 27,
          "material": 3,
          "mode": 4
        }
      ]
    },
    {
      "name": "Plane_1_PBR_0",
      "primitives": [
        {
          "attributes": {
            "NORMAL": 29,
            "POSITION": 28,
            "TEXCOORD_0": 30
          },
          "indices": 31,
          "material": 2,
          "mode": 4
        }
      ]
    },
    {
      "name": "Plane_PBR_0",
      "primitives": [
        {
          "attributes": {
            "NORMAL": 33,
            "POSITION": 32,
            "TEXCOORD_0": 34
          },
          "indices": 35,
          "material": 2,
          "mode": 4
        }
      ]
    }
  ],
  "nodes": [
    {
      "children": [
        1
      ],
      "matrix": [
        1.0,
        0.0,
        0.0,
        0.0,
        0.0,
        2.220446049250313e-16,
        -1.0,
        0.0,
        0.0,
        1.0,
        2.220446049250313e-16,
        0.0,
        0.0,
        0.0,
        0.0,
        1.0
      ],
      "name": "Sketchfab_model"
    },
    {
      "children": [
        2
      ],
      "matrix": [
        0.009999999776482582,
        0.0,
        0.0,
        0.0,
        0.0,
        0.0,
        0.009999999776482582,
        0.0,
        0.0,
        -0.009999999776482582,
        0.0,
        0.0,
        0.0,
        0.0,
        0.0,
        1.0
      ],
      "name": "7bf946aace984ab2abd78ce358ef4067.fbx"
    },
    {
      "children": [
        3,
        5,
        7,
        9,
        11,
        13,
        15,
        17,
        19,
        21
      ],
      "name": "RootNode"
    },
    {
      "children": [
        4
      ],
      "matrix": [
        -0.16918211431270036,
        -0.2890431802322622,
        0.9422480841890337,
        0.0,
        -0.05108128691230478,
        0.9573160606410089,
        0.28449369442250005,
        0.0,
        -0.9842601862942884,
        2.7755575615628914e-16,
        -0.17672545282424035,
        0.0,
        294.54815673828125,
        746.4359130859375,
        -1513.96533203125,
        1.0
      ],
      "name": "CINEMA_4D_Editor"
    },
    {
      "name": "Object_4"
    },
    {
      "children": [
        6
      ],
      "matrix": [
        0.9998812098520454,
        0.013190750690665503,
        -0.00797309732956109,
        0.0,
        -0.007696909525069509,
        -0.020857899281407466,
        -0.9997528222622478,
        0.0,
        -0.013353792291811375,
        0.9996954296853535,
        -0.02075389355383206,
        0.0,
        -236.86703491210938,
        302.2099914550781,
        12.549038887023926,
        1.0
      ],
      "name": "Plane_4"
    },
    {
      "mesh": 0,
      "name": "Plane_4_PBR.1_0"
    },
    {
      "children": [
        8
      ],
      "matrix": [
        0.9998812098520454,
        0.013190750690665503,
        -0.00797309732956109,
        0.0,
        -0.007696909525069509,
        -0.020857899281407466,
        -0.9997528222622478,
        0.0,
        -0.013353792291811375,
        0.9996954296853535,
        -0.02075389355383206,
        0.0,
        241.86575317382813,
        308.5256042480469,
        8.731602668762207,
        1.0
      ],
      "name": "Plane_3"
    },
    {
      "mesh": 1,
      "name": "Plane_3_PBR.1_0"
    },
    {
      "children": [
        10
      ],
      "matrix": [
        0.9998812098520454,
        0.013190750690665503,
        -0.00797309732956109,
        0.0,
        -0.007696909525069509,
        -0.020857899281407466,
        -0.9997528222622478,
        0.0,
        -0.013353792291811375,
        0.9996954296853535,
        -0.02075389355383206,
        0.0,
        -0.1660439521074295,
        309.22662353515625,
        -0.25805842876434326,
        1.0
      ],
      "name": "Plane_2"
    },
    {
      "mesh": 2,
      "name": "Plane_2_PBR.1_0"
    },
    {
      "children": [
        12
      ],
      "matrix": [
        -0.022019227525951868,
        -0.9997575474179529,
        -0.0,
        0.0,
        0.9997575474179529,
        -0.022019227525951868,
        0.0,
        0.0,
        0.0,
        0.0,
        1.0,
        0.0,
        37.20146560668945,
        333.2556457519531,
        -45.44838333129883,
        1.0
      ],
      "name": "Disc"
    },
    {
      "mesh": 3,
      "name": "Disc__0"
    },
    {
      "children": [
        14
      ],
      "matrix": [
        1.0,
        0.0,
        0.0,
        0.0,
        0.0,
        -0.026553409958901764,
        -0.9996473960450027,
        0.0,
        0.0,
        0.9996473960450027,
        -0.026553409958901764,
        0.0,
        99.24024963378906,
        334.6111145019531,
        -12.873172760009766,
        1.0
      ],
      "name": "Tube"
    },
    {
      "mesh": 4,
      "name": "Tube_PBR_0"
    },
    {
      "children": [
        16
      ],
      "matrix": [
        1.0,
        0.0,
        0.0,
        0.0,
        0.0,
        1.0,
        0.0,
        0.0,
        0.0,
        0.0,
        1.0,
        0.0,
        -121.56780242919922,
        538.8252563476563,
        0.0,
        1.0
      ],
      "name": "Cylinder_1"
    },
    {
      "mesh": 5,
      "name": "Cylinder_1_PBR.2_0"
    },
    {
      "children": [
        18
      ],
      "matrix": [
        1.0,
        0.0,
        0.0,
        0.0,
        0.0,
        1.0,
        0.0,
        0.0,
        0.0,
        0.0,
        1.0,
        0.0,
        -121.56780242919922,
        64.98934936523438,
        0.0,
        1.0
      ],
      "name": "Cylinder"
    },
    {
      "mesh": 6,
      "name": "Cylinder_PBR.2_0"
    },
    {
      "children": [
        20
      ],
      "matrix": [
        1.0,
        0.0,
        0.0,
        0.0,
        0.0,
        -0.0028105267705720305,
        -0.9999960504618366,
        0.0,
        0.0,
        0.9999960504618366,
        -0.0028105267705720305,
        0.0,
        100.69789123535156,
        309.8192443847656,
        -11.525111198425293,
        1.0
      ],
      "name": "Plane_1"
    },
    {
      "mesh": 7,
      "name": "Plane_1_PBR_0"
    },
    {
      "children": [
        22
      ],
      "matrix": [
        1.0,
        0.0,
        0.0,
        0.0,
        0.0,
        -0.0014157144539841404,
        0.9999989978757902,
        0.0,
        0.0,
        -0.9999989978757902,
        -0.0014157144539841404,
        0.0,
        -354.68408203125,
        296.79620361328125,
        0.0,
        1.0
      ],
      "name": "Plane"
    },
    {
      "mesh": 8,
      "name": "Plane_PBR_0"
    }
  ],
  "scene": 0,
  "scenes": [
    {
      "name": "Sketchfab_Scene",
      "nodes": [
        0
      ]
    }
  ]
}
