{
  "accessors": [
    {
      "bufferView": 2,
      "componentType": 5126,
      "count": 225,
      "max": [
        700.0,
        700.0,
        8.572527724574203e-14
      ],
      "min": [
        -700.0,
        -700.0,
        -8.572527724574203e-14
      ],
      "type": "VEC3"
    },
    {
      "bufferView": 2,
      "byteOffset": 2700,
      "componentType": 5126,
      "count": 225,
      "max": [
        0.0,
        0.0,
        1.0
      ],
      "min": [
        0.0,
        0.0,
        1.0
      ],
      "type": "VEC3"
    },
    {
      "bufferView": 3,
      "componentType": 5126,
      "count": 225,
      "max": [
        1.0,
        0.0,
        0.0,
        1.0
      ],
      "min": [
        1.0,
        0.0,
        0.0,
        1.0
      ],
      "type": "VEC4"
    },
    {
      "bufferView": 1,
      "componentType": 5126,
      "count": 225,
      "max": [
        1.0,
        1.0000001192092896
      ],
      "min": [
        0.0,
        0.0
      ],
      "type": "VEC2"
    },
    {
      "bufferView": 1,
      "byteOffset": 1800,
      "componentType": 5126,
      "count": 225,
      "max": [
        0.99169921875,
        0.9919357299804688
      ],
      "min": [
        0.00806427001953125,
        0.00830078125
      ],
      "type": "VEC2"
    },
    {
      "bufferView": 1,
      "byteOffset": 3600,
      "componentType": 5126,
      "count": 225,
      "max": [
        0.99169921875,
        0.9919357299804688
      ],
      "min": [
        0.00806427001953125,
        0.00830078125
      ],
      "type": "VEC2"
    },
    {
      "bufferView": 1,
      "byteOffset": 5400,
      "componentType": 5126,
      "count": 225,
      "max": [
        1.0,
        1.0000001192092896
      ],
      "min": [
        0.0,
        0.0
      ],
      "type": "VEC2"
    },
    {
      "bufferView": 0,
      "componentType": 5125,
      "count": 1176,
      "type": "SCALAR"
    },
    {
      "bufferView": 2,
      "byteOffset": 5400,
      "componentType": 5126,
      "count": 108,
      "max": [
        324.9281311035156,
        614.6077880859375,
        198.02003479003906
      ],
      "min": [
        -166.36024475097656,
        613.6077880859375,
        138.77003479003906
      ],
      "type": "VEC3"
    },
    {
      "bufferView": 2,
      "byteOffset": 6696,
      "componentType": 5126,
      "count": 108,
      "max": [
        1.0,
        1.0,
        1.0
      ],
      "min": [
        -1.0,
        -1.0,
        -1.0
      ],
      "type": "VEC3"
    },
    {
      "bufferView": 1,
      "byteOffset": 7200,
      "componentType": 5126,
      "count": 108,
      "max": [
        1.0,
        1.0
      ],
      "min": [
        0.0,
        0.0
      ],
      "type": "VEC2"
    },
    {
      "bufferView": 1,
      "byteOffset": 8064,
      "componentType": 5126,
      "count": 108,
      "max": [
        0.64013671875,
        0.995208740234375
      ],
      "min": [
        0.004791259765625,
        0.0048828125
      ],
      "type": "VEC2"
    },
    {
      "bufferView": 1,
      "byteOffset": 8928,
      "componentType": 5126,
      "count": 108,
      "max": [
        0.9599609375,
        0.9919357299804688
      ],
      "min": [
        0.00806427001953125,
        0.744873046875
      ],
      "type": "VEC2"
    },
    {
      "bufferView": 0,
      "byteOffset": 4704,
      "componentType": 5125,
      "count": 288,
      "type": "SCALAR"
    },
    {
      "bufferView": 2,
      "byteOffset": 7992,
      "componentType": 5126,
      "count": 2664,
      "max": [
        580.9661254882813,
        615.2926025390625,
        297.9017028808594
      ],
      "min": [
        -504.1329345703125,
        -542.5022583007813,
        -3.3476617336273193
      ],
      "type": "VEC3"
    },
    {
      "bufferView": 2,
      "byteOffset": 39960,
      "componentType": 5126,
      "count": 2664,
      "max": [
        1.0,
        1.0,
        1.0
      ],
      "min": [
        -1.0,
        -1.0,
        -1.0
      ],
      "type": "VEC3"
    },
    {
      "bufferView": 3,
      "byteOffset": 3600,
      "componentType": 5126,
      "count": 2664,
      "max": [
        1.0,
        1.0,
        1.0,
        1.0
      ],
      "min": [
        -1.0,
        -1.0,
        -1.0,
        -1.0
      ],
      "type": "VEC4"
    },
    {
      "bufferView": 1,
      "byteOffset": 9792,
      "componentType": 5126,
      "count": 2664,
      "max": [
        0.9345703125,
        0.89532470703125
      ],
      "min": [
        0.005893707275390625,
        0.455078125
      ],
      "type": "VEC2"
    },
    {
      "bufferView": 1,
      "byteOffset": 31104,
      "componentType": 5126,
      "count": 2664,
      "max": [
        0.99169921875,
        0.9919357299804688
      ],
      "min": [
        0.00806427001953125,
        0.0107421875
      ],
      "type": "VEC2"
    },
    {
      "bufferView": 1,
      "byteOffset": 52416,
      "componentType": 5126,
      "count": 2664,
      "max": [
        0.99072265625,
        0.91131591796875
      ],
      "min": [
        0.05645751953125,
        0.00927734375
      ],
      "type": "VEC2"
    },
    {
      "bufferView": 1,
      "byteOffset": 73728,
      "componentType": 5126,
      "count": 2664,
      "max": [
        0.9345703125,
        0.89532470703125
      ],
      "min": [
        0.005893707275390625,
        0.455078125
      ],
      "type": "VEC2"
    },
    {
      "bufferView": 0,
      "byteOffset": 5856,
      "componentType": 5125,
      "count": 5904,
      "type": "SCALAR"
    },
    {
      "bufferView": 2,
      "byteOffset": 71928,
      "componentType": 5126,
      "count": 192,
      "max": [
        575.67138671875,
        611.3619384765625,
        281.73687744140625
      ],
      "min": [
        -500.2633056640625,
        -538.4810180664063,
        14.829339981079102
      ],
      "type": "VEC3"
    },
    {
      "bufferView": 2,
      "byteOffset": 74232,
      "componentType": 5126,
      "count": 192,
      "max": [
        1.0,
        1.0,
        0.0
      ],
      "min": [
        -1.0,
        -1.0,
        0.0
      ],
      "type": "VEC3"
    },
    {
      "bufferView": 3,
      "byteOffset": 46224,
      "componentType": 5126,
      "count": 192,
      "max": [
        1.0,
        1.0,
        0.0037570344284176826,
        1.0
      ],
      "min": [
        -1.0,
        -1.0,
        -0.0037570346612483263,
        1.0
      ],
      "type": "VEC4"
    },
    {
      "bufferView": 1,
      "byteOffset": 95040,
      "componentType": 5126,
      "count": 192,
      "max": [
        4.5390625,
        3.013671875
      ],
      "min": [
        1.59375,
        -0.0380859375
      ],
      "type": "VEC2"
    },
    {
      "bufferView": 1,
      "byteOffset": 96576,
      "componentType": 5126,
      "count": 192,
      "max": [
        4.5390625,
        3.013671875
      ],
      "min": [
        1.59375,
        -0.0380859375
      ],
      "type": "VEC2"
    },
    {
      "bufferView": 1,
      "byteOffset": 98112,
      "componentType": 5126,
      "count": 192,
      "max": [
        0.91796875,
        0.9919357299804688
      ],
      "min": [
        0.00806427001953125,
        0.14697265625
      ],
      "type": "VEC2"
    },
    {
      "bufferView": 1,
      "byteOffset": 99648,
      "componentType": 5126,
      "count": 192,
      "max": [
        0.99072265625,
        0.9919357299804688
      ],
      "min": [
        0.00806427001953125,
        0.017578125
      ],
      "type": "VEC2"
    },
    {
      "bufferView": 1,
      "byteOffset": 101184,
      "componentType": 5126,
      "count": 192,
      "max": [
        4.5390625,
        3.013671875
      ],
      "min": [
        1.59375,
        -0.0380859375
      ],
      "type": "VEC2"
    },
    {
      "bufferView": 0,
      "byteOffset": 29472,
      "componentType": 5125,
      "count": 288,
      "type": "SCALAR"
    },
    {
      "bufferView": 2,
      "byteOffset": 76536,
      "componentType": 5126,
      "count": 282,
      "max": [
        373.52593994140625,
        60.642181396484375,
        204.1866912841797
      ],
      "min": [
        294.20892333984375,
        -38.16326904296875,
        2.6398918628692627
      ],
      "type": "VEC3"
    },
    {
      "bufferView": 2,
      "byteOffset": 79920,
      "componentType": 5126,
      "count": 282,
      "max": [
        1.0,
        1.0,
        1.0
      ],
      "min": [
        -1.0,
        -1.0,
        -1.0
      ],
      "type": "VEC3"
    },
    {
      "bufferView": 3,
      "byteOffset": 49296,
      "componentType": 5126,
      "count": 282,
      "max": [
        1.0,
        1.0,
        1.0,
        1.0
      ],
      "min": [
        -1.0,
        -1.0,
        -1.0,
        -1.0
      ],
      "type": "VEC4"
    },
    {
      "bufferView": 1,
      "byteOffset": 102720,
      "componentType": 5126,
      "count": 282,
      "max": [
        0.9892578125,
        0.983306884765625
      ],
      "min": [
        0.021331787109375,
        0.01318359375
      ],
      "type": "VEC2"
    },
    {
      "bufferView": 1,
      "byteOffset": 104976,
      "componentType": 5126,
      "count": 282,
      "max": [
        0.9833984375,
        0.9919357299804688
      ],
      "min": [
        0.00806427001953125,
        0.01904296875
      ],
      "type": "VEC2"
    },
    {
      "bufferView": 1,
      "byteOffset": 107232,
      "componentType": 5126,
      "count": 282,
      "max": [
        0.9833984375,
        0.9919357299804688
      ],
      "min": [
        0.00806427001953125,
        0.01953125
      ],
      "type": "VEC2"
    },
    {
      "bufferView": 1,
      "byteOffset": 109488,
      "componentType": 5126,
      "count": 282,
      "max": [
        0.9892578125,
        0.983306884765625
      ],
      "min": [
        0.021331787109375,
        0.01318359375
      ],
      "type": "VEC2"
    },
    {
      "bufferView": 0,
      "byteOffset": 30624,
      "componentType": 5125,
      "count": 558,
      "type": "SCALAR"
    },
    {
      "bufferView": 2,
      "byteOffset": 83304,
      "componentType": 5126,
      "count": 64,
      "max": [
        370.37445068359375,
        49.77362060546875,
        199.40589904785156
      ],
      "min": [
        306.4248046875,
        -27.602848052978516,
        53.389556884765625
      ],
      "type": "VEC3"
    },
    {
      "bufferView": 2,
      "byteOffset": 84072,
      "componentType": 5126,
      "count": 64,
      "max": [
        1.0,
        1.0,
        1.0
      ],
      "min": [
        0.0,
        -1.0,
        0.0
      ],
      "type": "VEC3"
    },
    {
      "bufferView": 3,
      "byteOffset": 53808,
      "componentType": 5126,
      "count": 64,
      "max": [
        0.0,
        1.0,
        1.0,
        -1.0
      ],
      "min": [
        0.0,
        -0.8661079406738281,
        0.0,
        -1.0
      ],
      "type": "VEC4"
    },
    {
      "bufferView": 1,
      "byteOffset": 111744,
      "componentType": 5126,
      "count": 64,
      "max": [
        0.97705078125,
        0.47509765625
      ],
      "min": [
        0.77587890625,
        0.27392578125
      ],
      "type": "VEC2"
    },
    {
      "bufferView": 1,
      "byteOffset": 112256,
      "componentType": 5126,
      "count": 64,
      "max": [
        0.97705078125,
        0.47509765625
      ],
      "min": [
        0.77587890625,
        0.27392578125
      ],
      "type": "VEC2"
    },
    {
      "bufferView": 1,
      "byteOffset": 112768,
      "componentType": 5126,
      "count": 64,
      "max": [
        0.98681640625,
        0.9919357299804688
      ],
      "min": [
        0.2177734375,
        0.1630859375
      ],
      "type": "VEC2"
    },
    {
      "bufferView": 1,
      "byteOffset": 113280,
      "componentType": 5126,
      "count": 64,
      "max": [
        0.98681640625,
        0.9919357299804688
      ],
      "min": [
        0.2177734375,
        0.1630859375
      ],
      "type": "VEC2"
    },
    {
      "bufferView": 1,
      "byteOffset": 113792,
      "componentType": 5126,
      "count": 64,
      "max": [
        0.97705078125,
        0.47509765625
      ],
      "min": [
        0.77587890625,
        0.27392578125
      ],
      "type": "VEC2"
    },
    {
      "bufferView": 0,
      "byteOffset": 32856,
      "componentType": 5125,
      "count": 96,
      "type": "SCALAR"
    },
    {
      "bufferView": 2,
      "byteOffset": 84840,
      "componentType": 5126,
      "count": 12,
      "max": [
        370.24249267578125,
        50.246742248535156,
        179.5789337158203
      ],
      "min": [
        297.73553466796875,
        -20.293590545654297,
        101.81417846679688
      ],
      "type": "VEC3"
    },
    {
      "bufferView": 2,
      "byteOffset": 84984,
      "componentType": 5126,
      "count": 12,
      "max": [
        1.0,
        1.0,
        0.0
      ],
      "min": [
        -1.0,
        0.0,
        0.0
      ],
      "type": "VEC3"
    },
    {
      "bufferView": 3,
      "byteOffset": 54832,
      "componentType": 5126,
      "count": 12,
      "max": [
        0.0,
        0.9999995231628418,
        0.0205091442912817,
        1.0
      ],
      "min": [
        -0.9997910857200623,
        -0.9999424815177917,
        0.001001453259959817,
        1.0
      ],
      "type": "VEC4"
    },
    {
      "bufferView": 1,
      "byteOffset": 114304,
      "componentType": 5126,
      "count": 12,
      "max": [
        1.0,
        1.0
      ],
      "min": [
        0.486572265625,
        0.0
      ],
      "type": "VEC2"
    },
    {
      "bufferView": 1,
      "byteOffset": 114400,
      "componentType": 5126,
      "count": 12,
      "max": [
        0.176513671875,
        0.45947265625
      ],
      "min": [
        0.00806427001953125,
        0.1328125
      ],
      "type": "VEC2"
    },
    {
      "bufferView": 1,
      "byteOffset": 114496,
      "componentType": 5126,
      "count": 12,
      "max": [
        0.176513671875,
        0.45947265625
      ],
      "min": [
        0.00806427001953125,
        0.1328125
      ],
      "type": "VEC2"
    },
    {
      "bufferView": 1,
      "byteOffset": 114592,
      "componentType": 5126,
      "count": 12,
      "max": [
        1.0,
        1.0
      ],
      "min": [
        0.486572265625,
        0.0
      ],
      "type": "VEC2"
    },
    {
      "bufferView": 0,
      "byteOffset": 33240,
      "componentType": 5125,
      "count": 18,
      "type": "SCALAR"
    },
    {
      "bufferView": 2,
      "byteOffset": 85128,
      "componentType": 5126,
      "count": 428,
      "max": [
        183.54588317871094,
        620.32421875,
        223.4288330078125
      ],
      "min": [
        83.512451171875,
        605.0783081054688,
        14.123456001281738
      ],
      "type": "VEC3"
    },
    {
      "bufferView": 2,
      "byteOffset": 90264,
      "componentType": 5126,
      "count": 428,
      "max": [
        1.0,
        1.0,
        1.0
      ],
      "min": [
        -1.0,
        -1.0,
        -1.0
      ],
      "type": "VEC3"
    },
    {
      "bufferView": 3,
      "byteOffset": 55024,
      "componentType": 5126,
      "count": 428,
      "max": [
        1.0,
        1.0,
        1.0,
        1.0
      ],
      "min": [
        -1.0,
        -1.0,
        -1.0,
        -1.0
      ],
      "type": "VEC4"
    },
    {
      "bufferView": 1,
      "byteOffset": 114688,
      "componentType": 5126,
      "count": 428,
      "max": [
        0.9951171875,
        0.7757568359375
      ],
      "min": [
        0.0084686279296875,
        0.0693359375
      ],
      "type": "VEC2"
    },
    {
      "bufferView": 1,
      "byteOffset": 118112,
      "componentType": 5126,
      "count": 428,
      "max": [
        0.984375,
        0.9919357299804688
      ],
      "min": [
        0.00806427001953125,
        0.01220703125
      ],
      "type": "VEC2"
    },
    {
      "bufferView": 1,
      "byteOffset": 121536,
      "componentType": 5126,
      "count": 428,
      "max": [
        0.984375,
        0.9919357299804688
      ],
      "min": [
        0.00806427001953125,
        0.01220703125
      ],
      "type": "VEC2"
    },
    {
      "bufferView": 1,
      "byteOffset": 124960,
      "componentType": 5126,
      "count": 428,
      "max": [
        0.9951171875,
        0.7757568359375
      ],
      "min": [
        0.0084686279296875,
        0.0693359375
      ],
      "type": "VEC2"
    },
    {
      "bufferView": 0,
      "byteOffset": 33312,
      "componentType": 5125,
      "count": 1230,
      "type": "SCALAR"
    },
    {
      "bufferView": 2,
      "byteOffset": 95400,
      "componentType": 5126,
      "count": 34,
      "max": [
        181.36376953125,
        615.3124389648438,
        176.71868896484375
      ],
      "min": [
        83.3062515258789,
        611.843017578125,
        46.96764373779297
      ],
      "type": "VEC3"
    },
    {
      "bufferView": 2,
      "byteOffset": 95808,
      "componentType": 5126,
      "count": 34,
      "max": [
        1.0,
        0.9920337200164795,
        0.007873771712183952
      ],
      "min": [
        -0.12597253918647766,
        0.0,
        0.0
      ],
      "type": "VEC3"
    },
    {
      "bufferView": 3,
      "byteOffset": 61872,
      "componentType": 5126,
      "count": 34,
      "max": [
        0.0041337162256240845,
        0.9996165037155151,
        0.9130507111549377,
        1.0
      ],
      "min": [
        -0.9920335412025452,
        -0.8511034846305847,
        -0.9654984474182129,
        -1.0
      ],
      "type": "VEC4"
    },
    {
      "bufferView": 1,
      "byteOffset": 128384,
      "componentType": 5126,
      "count": 34,
      "max": [
        0.7421875,
        0.490234375
      ],
      "min": [
        0.27001953125,
        0.00634765625
      ],
      "type": "VEC2"
    },
    {
      "bufferView": 1,
      "byteOffset": 128656,
      "componentType": 5126,
      "count": 34,
      "max": [
        0.7421875,
        0.490234375
      ],
      "min": [
        0.27001953125,
        0.00634765625
      ],
      "type": "VEC2"
    },
    {
      "bufferView": 1,
      "byteOffset": 128928,
      "componentType": 5126,
      "count": 34,
      "max": [
        0.96142578125,
        0.04052734375
      ],
      "min": [
        0.73388671875,
        0.02001953125
      ],
      "type": "VEC2"
    },
    {
      "bufferView": 1,
      "byteOffset": 129200,
      "componentType": 5126,
      "count": 34,
      "max": [
        0.96142578125,
        0.04052734375
      ],
      "min": [
        0.73388671875,
        0.02001953125
      ],
      "type": "VEC2"
    },
    {
      "bufferView": 1,
      "byteOffset": 129472,
      "componentType": 5126,
      "count": 34,
      "max": [
        0.7421875,
        0.490234375
      ],
      "min": [
        0.27001953125,
        0.00634765625
      ],
      "type": "VEC2"
    },
    {
      "bufferView": 0,
      "byteOffset": 38232,
      "componentType": 5125,
      "count": 48,
      "type": "SCALAR"
    },
    {
      "bufferView": 2,
      "byteOffset": 96216,
      "componentType": 5126,
      "count": 16,
      "max": [
        180.63787841796875,
        614.107666015625,
        220.33172607421875
      ],
      "min": [
        87.52469635009766,
        611.1095581054688,
        18.99589729309082
      ],
      "type": "VEC3"
    },
    {
      "bufferView": 2,
      "byteOffset": 96408,
      "componentType": 5126,
      "count": 16,
      "max": [
        0.0,
        1.0,
        0.0
      ],
      "min": [
        0.0,
        -1.0,
        0.0
      ],
      "type": "VEC3"
    },
    {
      "bufferView": 3,
      "byteOffset": 62416,
      "componentType": 5126,
      "count": 16,
      "max": [
        1.0,
        0.0,
        0.003124479204416275,
        1.0
      ],
      "min": [
        -1.0,
        0.0,
        -0.0018808797467499971,
        1.0
      ],
      "type": "VEC4"
    },
    {
      "bufferView": 1,
      "byteOffset": 129744,
      "componentType": 5126,
      "count": 16,
      "max": [
        8.421875,
        2.60546875
      ],
      "min": [
        5.95703125,
        0.66552734375
      ],
      "type": "VEC2"
    },
    {
      "bufferView": 1,
      "byteOffset": 129872,
      "componentType": 5126,
      "count": 16,
      "max": [
        8.421875,
        2.60546875
      ],
      "min": [
        5.95703125,
        0.66552734375
      ],
      "type": "VEC2"
    },
    {
      "bufferView": 1,
      "byteOffset": 130000,
      "componentType": 5126,
      "count": 16,
      "max": [
        0.72265625,
        0.9919357299804688
      ],
      "min": [
        0.00806427001953125,
        0.24755859375
      ],
      "type": "VEC2"
    },
    {
      "bufferView": 1,
      "byteOffset": 130128,
      "componentType": 5126,
      "count": 16,
      "max": [
        0.72265625,
        0.9919357299804688
      ],
      "min": [
        0.00806427001953125,
        0.24755859375
      ],
      "type": "VEC2"
    },
    {
      "bufferView": 1,
      "byteOffset": 130256,
      "componentType": 5126,
      "count": 16,
      "max": [
        8.421875,
        2.60546875
      ],
      "min": [
        5.95703125,
        0.66552734375
      ],
      "type": "VEC2"
    },
    {
      "bufferView": 0,
      "byteOffset": 38424,
      "componentType": 5125,
      "count": 36,
      "type": "SCALAR"
    },
    {
      "bufferView": 2,
      "byteOffset": 96600,
      "componentType": 5126,
      "count": 428,
      "max": [
        81.2565689086914,
        617.8660888671875,
        223.4288330078125
      ],
      "min": [
        -18.776857376098633,
        602.6201171875,
        14.12345027923584
      ],
      "type": "VEC3"
    },
    {
      "bufferView": 2,
      "byteOffset": 101736,
      "componentType": 5126,
      "count": 428,
      "max": [
        1.0,
        1.0,
        1.0
      ],
      "min": [
        -1.0,
        -1.0,
        -1.0
      ],
      "type": "VEC3"
    },
    {
      "bufferView": 3,
      "byteOffset": 62672,
      "componentType": 5126,
      "count": 428,
      "max": [
        1.0,
        1.0,
        1.0,
        1.0
      ],
      "min": [
        -1.0,
        -1.0,
        -1.0,
        -1.0
      ],
      "type": "VEC4"
    },
    {
      "bufferView": 1,
      "byteOffset": 130384,
      "componentType": 5126,
      "count": 428,
      "max": [
        0.9951171875,
        0.7757568359375
      ],
      "min": [
        0.0084686279296875,
        0.0693359375
      ],
      "type": "VEC2"
    },
    {
      "bufferView": 1,
      "byteOffset": 133808,
      "componentType": 5126,
      "count": 428,
      "max": [
        0.984375,
        0.9919357299804688
      ],
      "min": [
        0.00806427001953125,
        0.01220703125
      ],
      "type": "VEC2"
    },
    {
      "bufferView": 1,
      "byteOffset": 137232,
      "componentType": 5126,
      "count": 428,
      "max": [
        0.984375,
        0.9919357299804688
      ],
      "min": [
        0.00806427001953125,
        0.01220703125
      ],
      "type": "VEC2"
    },
    {
      "bufferView": 1,
      "byteOffset": 140656,
      "componentType": 5126,
      "count": 428,
      "max": [
        0.9951171875,
        0.7757568359375
      ],
      "min": [
        0.0084686279296875,
        0.0693359375
      ],
      "type": "VEC2"
    },
    {
      "bufferView": 0,
      "byteOffset": 38568,
      "componentType": 5125,
      "count": 1230,
      "type": "SCALAR"
    },
    {
      "bufferView": 2,
      "byteOffset": 106872,
      "componentType": 5126,
      "count": 34,
      "max": [
        81.4627685546875,
        611.1013793945313,
        176.71868896484375
      ],
      "min": [
        -16.594741821289063,
        607.6319580078125,
        46.96763610839844
      ],
      "type": "VEC3"
    },
    {
      "bufferView": 2,
      "byteOffset": 107280,
      "componentType": 5126,
      "count": 34,
      "max": [
        0.12597253918647766,
        0.0,
        0.007873771712183952
      ],
      "min": [
        -1.0,
        -0.9920337200164795,
        0.0
      ],
      "type": "VEC3"
    },
    {
      "bufferView": 3,
      "byteOffset": 69520,
      "componentType": 5126,
      "count": 34,
      "max": [
        0.9920335412025452,
        0.8511375784873962,
        0.9130516052246094,
        1.0
      ],
      "min": [
        -0.004133278504014015,
        -0.9996165037155151,
        -0.9654977917671204,
        -1.0
      ],
      "type": "VEC4"
    },
    {
      "bufferView": 1,
      "byteOffset": 144080,
      "componentType": 5126,
      "count": 34,
      "max": [
        0.7421875,
        0.490234375
      ],
      "min": [
        0.27001953125,
        0.00634765625
      ],
      "type": "VEC2"
    },
    {
      "bufferView": 1,
      "byteOffset": 144352,
      "componentType": 5126,
      "count": 34,
      "max": [
        0.7421875,
        0.490234375
      ],
      "min": [
        0.27001953125,
        0.00634765625
      ],
      "type": "VEC2"
    },
    {
      "bufferView": 1,
      "byteOffset": 144624,
      "componentType": 5126,
      "count": 34,
      "max": [
        0.96142578125,
        0.04052734375
      ],
      "min": [
        0.73388671875,
        0.02001953125
      ],
      "type": "VEC2"
    },
    {
      "bufferView": 1,
      "byteOffset": 144896,
      "componentType": 5126,
      "count": 34,
      "max": [
        0.96142578125,
        0.04052734375
      ],
      "min": [
        0.73388671875,
        0.02001953125
      ],
      "type": "VEC2"
    },
    {
      "bufferView": 1,
      "byteOffset": 145168,
      "componentType": 5126,
      "count": 34,
      "max": [
        0.7421875,
        0.490234375
      ],
      "min": [
        0.27001953125,
        0.00634765625
      ],
      "type": "VEC2"
    },
    {
      "bufferView": 0,
      "byteOffset": 43488,
      "componentType": 5125,
      "count": 48,
      "type": "SCALAR"
    },
    {
      "bufferView": 2,
      "byteOffset": 107688,
      "componentType": 5126,
      "count": 16,
      "max": [
        77.24432373046875,
        611.8348388671875,
        220.33172607421875
      ],
      "min": [
        -15.868865013122559,
        608.8367309570313,
        18.995891571044922
      ],
      "type": "VEC3"
    },
    {
      "bufferView": 2,
      "byteOffset": 107880,
      "componentType": 5126,
      "count": 16,
      "max": [
        0.0,
        1.0,
        0.0
      ],
      "min": [
        0.0,
        -1.0,
        0.0
      ],
      "type": "VEC3"
    },
    {
      "bufferView": 3,
      "byteOffset": 70064,
      "componentType": 5126,
      "count": 16,
      "max": [
        1.0,
        0.0,
        0.0031244789715856314,
        1.0
      ],
      "min": [
        -1.0,
        0.0,
        -0.0018808796303346753,
        1.0
      ],
      "type": "VEC4"
    },
    {
      "bufferView": 1,
      "byteOffset": 145440,
      "componentType": 5126,
      "count": 16,
      "max": [
        8.421875,
        2.60546875
      ],
      "min": [
        5.95703125,
        0.66552734375
      ],
      "type": "VEC2"
    },
    {
      "bufferView": 1,
      "byteOffset": 145568,
      "componentType": 5126,
      "count": 16,
      "max": [
        8.421875,
        2.60546875
      ],
      "min": [
        5.95703125,
        0.66552734375
      ],
      "type": "VEC2"
    },
    {
      "bufferView": 1,
      "byteOffset": 145696,
      "componentType": 5126,
      "count": 16,
      "max": [
        0.72265625,
        0.9919357299804688
      ],
      "min": [
        0.00806427001953125,
        0.24755859375
      ],
      "type": "VEC2"
    },
    {
      "bufferView": 1,
      "byteOffset": 145824,
      "componentType": 5126,
      "count": 16,
      "max": [
        0.72265625,
        0.9919357299804688
      ],
      "min": [
        0.00806427001953125,
        0.24755859375
      ],
      "type": "VEC2"
    },
    {
      "bufferView": 1,
      "byteOffset": 145952,
      "componentType": 5126,
      "count": 16,
      "max": [
        8.421875,
        2.60546875
      ],
      "min": [
        5.95703125,
        0.66552734375
      ],
      "type": "VEC2"
    },
    {
      "bufferView": 0,
      "byteOffset": 43680,
      "componentType": 5125,
      "count": 36,
      "type": "SCALAR"
    },
    {
      "bufferView": 2,
      "byteOffset": 108072,
      "componentType": 5126,
      "count": 258,
      "max": [
        197.92686462402344,
        632.530517578125,
        285.2196350097656
      ],
      "min": [
        175.2250213623047,
        614.0957641601563,
        262.51788330078125
      ],
      "type": "VEC3"
    },
    {
      "bufferView": 2,
      "byteOffset": 111168,
      "componentType": 5126,
      "count": 258,
      "max": [
        0.9974985122680664,
        1.0,
        0.9974676370620728
      ],
      "min": [
        -0.9974985122680664,
        -1.0,
        -0.9974676370620728
      ],
      "type": "VEC3"
    },
    {
      "bufferView": 3,
      "byteOffset": 70320,
      "componentType": 5126,
      "count": 258,
      "max": [
        0.9999996423721313,
        0.9966861605644226,
        0.991254448890686,
        1.0
      ],
      "min": [
        -1.0,
        -0.6302767992019653,
        -1.0,
        -1.0
      ],
      "type": "VEC4"
    },
    {
      "bufferView": 1,
      "byteOffset": 146080,
      "componentType": 5126,
      "count": 258,
      "max": [
        0.99609375,
        0.947967529296875
      ],
      "min": [
        0.212646484375,
        0.00244140625
      ],
      "type": "VEC2"
    },
    {
      "bufferView": 1,
      "byteOffset": 148144,
      "componentType": 5126,
      "count": 258,
      "max": [
        0.98779296875,
        0.9919357299804688
      ],
      "min": [
        0.00806427001953125,
        0.01611328125
      ],
      "type": "VEC2"
    },
    {
      "bufferView": 1,
      "byteOffset": 150208,
      "componentType": 5126,
      "count": 258,
      "max": [
        0.98828125,
        0.9919357299804688
      ],
      "min": [
        0.00806427001953125,
        0.01611328125
      ],
      "type": "VEC2"
    },
    {
      "bufferView": 1,
      "byteOffset": 152272,
      "componentType": 5126,
      "count": 258,
      "max": [
        0.99609375,
        0.947967529296875
      ],
      "min": [
        0.212646484375,
        0.00244140625
      ],
      "type": "VEC2"
    },
    {
      "bufferView": 0,
      "byteOffset": 43824,
      "componentType": 5125,
      "count": 684,
      "type": "SCALAR"
    },
    {
      "bufferView": 2,
      "byteOffset": 114264,
      "componentType": 5126,
      "count": 530,
      "max": [
        194.54966735839844,
        649.2853393554688,
        299.9590759277344
      ],
      "min": [
        178.58763122558594,
        618.3984985351563,
        273.580322265625
      ],
      "type": "VEC3"
    },
    {
      "bufferView": 2,
      "byteOffset": 120624,
      "componentType": 5126,
      "count": 530,
      "max": [
        1.0,
        0.9993805885314941,
        0.9947196245193481
      ],
      "min": [
        -1.0,
        -0.9998760223388672,
        -0.9996902346611023
      ],
      "type": "VEC3"
    },
    {
      "bufferView": 3,
      "byteOffset": 74448,
      "componentType": 5126,
      "count": 530,
      "max": [
        1.0,
        0.973687469959259,
        0.9984133243560791,
        1.0
      ],
      "min": [
        -1.0,
        -0.973687469959259,
        -0.999876081943512,
        -1.0
      ],
      "type": "VEC4"
    },
    {
      "bufferView": 1,
      "byteOffset": 154336,
      "componentType": 5126,
      "count": 530,
      "max": [
        0.99560546875,
        1.58740234375
      ],
      "min": [
        -0.0281982421875,
        0.00048828125
      ],
      "type": "VEC2"
    },
    {
      "bufferView": 1,
      "byteOffset": 158576,
      "componentType": 5126,
      "count": 530,
      "max": [
        0.97998046875,
        0.9919357299804688
      ],
      "min": [
        0.00806427001953125,
        0.01171875
      ],
      "type": "VEC2"
    },
    {
      "bufferView": 1,
      "byteOffset": 162816,
      "componentType": 5126,
      "count": 530,
      "max": [
        0.97998046875,
        0.9919357299804688
      ],
      "min": [
        0.00806427001953125,
        0.01220703125
      ],
      "type": "VEC2"
    },
    {
      "bufferView": 1,
      "byteOffset": 167056,
      "componentType": 5126,
      "count": 530,
      "max": [
        0.99560546875,
        1.58740234375
      ],
      "min": [
        -0.0281982421875,
        0.00048828125
      ],
      "type": "VEC2"
    },
    {
      "bufferView": 0,
      "byteOffset": 46560,
      "componentType": 5125,
      "count": 1758,
      "type": "SCALAR"
    },
    {
      "bufferView": 2,
      "byteOffset": 126984,
      "componentType": 5126,
      "count": 18,
      "max": [
        188.1713409423828,
        641.3095092773438,
        276.5198669433594
      ],
      "min": [
        184.9822998046875,
        640.20458984375,
        273.580322265625
      ],
      "type": "VEC3"
    },
    {
      "bufferView": 2,
      "byteOffset": 127200,
      "componentType": 5126,
      "count": 18,
      "max": [
        0.0,
        0.9353565573692322,
        -0.3537062704563141
      ],
      "min": [
        0.0,
        0.9353565573692322,
        -0.3537062704563141
      ],
      "type": "VEC3"
    },
    {
      "bufferView": 1,
      "byteOffset": 171296,
      "componentType": 5126,
      "count": 18,
      "max": [
        0.84228515625,
        0.9986400604248047
      ],
      "min": [
        0.76220703125,
        0.856201171875
      ],
      "type": "VEC2"
    },
    {
      "bufferView": 1,
      "byteOffset": 171440,
      "componentType": 5126,
      "count": 18,
      "max": [
        0.9892578125,
        0.39501953125
      ],
      "min": [
        0.943359375,
        0.3486328125
      ],
      "type": "VEC2"
    },
    {
      "bufferView": 1,
      "byteOffset": 171584,
      "componentType": 5126,
      "count": 18,
      "max": [
        0.9892578125,
        0.39501953125
      ],
      "min": [
        0.943359375,
        0.3486328125
      ],
      "type": "VEC2"
    },
    {
      "bufferView": 0,
      "byteOffset": 53592,
      "componentType": 5125,
      "count": 48,
      "type": "SCALAR"
    },
    {
      "bufferView": 2,
      "byteOffset": 127416,
      "componentType": 5126,
      "count": 64,
      "max": [
        192.28857421875,
        644.1488037109375,
        288.98480224609375
      ],
      "min": [
        180.864013671875,
        634.025634765625,
        275.9028625488281
      ],
      "type": "VEC3"
    },
    {
      "bufferView": 2,
      "byteOffset": 128184,
      "componentType": 5126,
      "count": 64,
      "max": [
        0.5024285316467285,
        0.999225914478302,
        0.3537062704563141
      ],
      "min": [
        -0.5024285316467285,
        -0.9353565573692322,
        -0.7722522616386414
      ],
      "type": "VEC3"
    },
    {
      "bufferView": 1,
      "byteOffset": 171728,
      "componentType": 5126,
      "count": 64,
      "max": [
        0.62109375,
        0.9944915771484375
      ],
      "min": [
        0.037872314453125,
        0.0576171875
      ],
      "type": "VEC2"
    },
    {
      "bufferView": 1,
      "byteOffset": 172240,
      "componentType": 5126,
      "count": 64,
      "max": [
        0.9677734375,
        0.9919357299804688
      ],
      "min": [
        0.33056640625,
        0.37841796875
      ],
      "type": "VEC2"
    },
    {
      "bufferView": 1,
      "byteOffset": 172752,
      "componentType": 5126,
      "count": 64,
      "max": [
        0.96826171875,
        0.9919357299804688
      ],
      "min": [
        0.33056640625,
        0.37841796875
      ],
      "type": "VEC2"
    },
    {
      "bufferView": 0,
      "byteOffset": 53784,
      "componentType": 5125,
      "count": 228,
      "type": "SCALAR"
    },
    {
      "bufferView": 2,
      "byteOffset": 128952,
      "componentType": 5126,
      "count": 4262,
      "max": [
        664.158935546875,
        672.6431884765625,
        3204.4453125
      ],
      "min": [
        -679.6624755859375,
        -656.1032104492188,
        975.8155517578125
      ],
      "type": "VEC3"
    },
    {
      "bufferView": 2,
      "byteOffset": 180096,
      "componentType": 5126,
      "count": 4262,
      "max": [
        0.9999380111694336,
        0.9989476799964905,
        0.9792968034744263
      ],
      "min": [
        -0.9999690055847168,
        -0.9993805885314941,
        -0.9885207414627075
      ],
      "type": "VEC3"
    },
    {
      "bufferView": 3,
      "byteOffset": 82928,
      "componentType": 5126,
      "count": 4262,
      "max": [
        0.9999918341636658,
        0.999721109867096,
        0.999980628490448,
        1.0
      ],
      "min": [
        -0.998698353767395,
        -0.9936087131500244,
        -0.9938890933990479,
        -1.0
      ],
      "type": "VEC4"
    },
    {
      "bufferView": 1,
      "byteOffset": 173264,
      "componentType": 5126,
      "count": 4262,
      "max": [
        0.74169921875,
        1.0021038055419922
      ],
      "min": [
        0.0054779052734375,
        0.00439453125
      ],
      "type": "VEC2"
    },
    {
      "bufferView": 1,
      "byteOffset": 207360,
      "componentType": 5126,
      "count": 4262,
      "max": [
        0.74169921875,
        1.0021038055419922
      ],
      "min": [
        0.0054779052734375,
        0.00439453125
      ],
      "type": "VEC2"
    },
    {
      "bufferView": 1,
      "byteOffset": 241456,
      "componentType": 5126,
      "count": 4262,
      "max": [
        0.0,
        1.0
      ],
      "min": [
        0.0,
        1.0
      ],
      "type": "VEC2"
    },
    {
      "bufferView": 1,
      "byteOffset": 275552,
      "componentType": 5126,
      "count": 4262,
      "max": [
        0.74169921875,
        1.0021038055419922
      ],
      "min": [
        0.0054779052734375,
        0.00439453125
      ],
      "type": "VEC2"
    },
    {
      "bufferView": 0,
      "byteOffset": 54696,
      "componentType": 5125,
      "count": 6384,
      "type": "SCALAR"
    },
    {
      "bufferView": 2,
      "byteOffset": 231240,
      "componentType": 5126,
      "count": 8230,
      "max": [
        478.25701904296875,
        431.97137451171875,
        3206.29296875
      ],
      "min": [
        -540.1356201171875,
        -469.60455322265625,
        1039.937744140625
      ],
      "type": "VEC3"
    },
    {
      "bufferView": 2,
      "byteOffset": 330000,
      "componentType": 5126,
      "count": 8230,
      "max": [
        0.9999690055847168,
        0.9998760223388672,
        1.0
      ],
      "min": [
        -1.0,
        -1.0,
        -1.0
      ],
      "type": "VEC3"
    },
    {
      "bufferView": 3,
      "byteOffset": 151120,
      "componentType": 5126,
      "count": 8230,
      "max": [
        1.0,
        0.9999997615814209,
        1.0,
        1.0
      ],
      "min": [
        -0.9999998211860657,
        -0.999994695186615,
        -1.0,
        -1.0
      ],
      "type": "VEC4"
    },
    {
      "bufferView": 1,
      "byteOffset": 309648,
      "componentType": 5126,
      "count": 8230,
      "max": [
        0.9970703125,
        0.9976005554199219
      ],
      "min": [
        0.002399444580078125,
        0.00341796875
      ],
      "type": "VEC2"
    },
    {
      "bufferView": 1,
      "byteOffset": 375488,
      "componentType": 5126,
      "count": 8230,
      "max": [
        0.0,
        1.0
      ],
      "min": [
        0.0,
        1.0
      ],
      "type": "VEC2"
    },
    {
      "bufferView": 1,
      "byteOffset": 441328,
      "componentType": 5126,
      "count": 8230,
      "max": [
        0.9970703125,
        0.9976005554199219
      ],
      "min": [
        0.002399444580078125,
        0.00341796875
      ],
      "type": "VEC2"
    },
    {
      "bufferView": 0,
      "byteOffset": 80232,
      "componentType": 5125,
      "count": 22896,
      "type": "SCALAR"
    },
    {
      "bufferView": 2,
      "byteOffset": 428760,
      "componentType": 5126,
      "count": 586,
      "max": [
        688.987548828125,
        692.2279663085938,
        4609.19580078125
      ],
      "min": [
        -705.9176025390625,
        -675.5171508789063,
        984.4556274414063
      ],
      "type": "VEC3"
    },
    {
      "bufferView": 2,
      "byteOffset": 435792,
      "componentType": 5126,
      "count": 586,
      "max": [
        0.9962700605392456,
        0.9969143271446228,
        0.9438583850860596
      ],
      "min": [
        -0.9995043873786926,
        -0.9980219006538391,
        -0.9438583850860596
      ],
      "type": "VEC3"
    },
    {
      "bufferView": 3,
      "byteOffset": 282800,
      "componentType": 5126,
      "count": 586,
      "max": [
        0.9947602152824402,
        1.0,
        1.0,
        1.0
      ],
      "min": [
        -0.9947602152824402,
        -1.0,
        -1.0,
        1.0
      ],
      "type": "VEC4"
    },
    {
      "bufferView": 1,
      "byteOffset": 507168,
      "componentType": 5126,
      "count": 586,
      "max": [
        1.4716796875,
        1.444091796875
      ],
      "min": [
        -0.71533203125,
        -0.4443359375
      ],
      "type": "VEC2"
    },
    {
      "bufferView": 1,
      "byteOffset": 511856,
      "componentType": 5126,
      "count": 586,
      "max": [
        0.0,
        1.0
      ],
      "min": [
        0.0,
        1.0
      ],
      "type": "VEC2"
    },
    {
      "bufferView": 0,
      "byteOffset": 171816,
      "componentType": 5125,
      "count": 1164,
      "type": "SCALAR"
    },
    {
      "bufferView": 2,
      "byteOffset": 442824,
      "componentType": 5126,
      "count": 65532,
      "max": [
        631.897705078125,
        624.7242431640625,
        3553.619140625
      ],
      "min": [
        -657.4419555664063,
        -662.0283203125,
        5.152090549468994
      ],
      "type": "VEC3"
    },
    {
      "bufferView": 2,
      "byteOffset": 1229208,
      "componentType": 5126,
      "count": 65532,
      "max": [
        1.0,
        1.0,
        1.0
      ],
      "min": [
        -1.0,
        -1.0,
        -1.0
      ],
      "type": "VEC3"
    },
    {
      "bufferView": 3,
      "byteOffset": 292176,
      "componentType": 5126,
      "count": 65532,
      "max": [
        1.0,
        1.0,
        1.0,
        1.0
      ],
      "min": [
        -1.0,
        -1.0,
        -1.0,
        -1.0
      ],
      "type": "VEC4"
    },
    {
      "bufferView": 1,
      "byteOffset": 516544,
      "componentType": 5126,
      "count": 65532,
      "max": [
        8.765625,
        5.625
      ],
      "min": [
        -7.58203125,
        -6.6875
      ],
      "type": "VEC2"
    },
    {
      "bufferView": 1,
      "byteOffset": 1040800,
      "componentType": 5126,
      "count": 65532,
      "max": [
        8.765625,
        5.625
      ],
      "min": [
        -7.58203125,
        -6.6875
      ],
      "type": "VEC2"
    },
    {
      "bufferView": 1,
      "byteOffset": 1565056,
      "componentType": 5126,
      "count": 65532,
      "max": [
        0.0,
        1.0
      ],
      "min": [
        0.0,
        1.0
      ],
      "type": "VEC2"
    },
    {
      "bufferView": 0,
      "byteOffset": 176472,
      "componentType": 5125,
      "count": 241872,
      "type": "SCALAR"
    },
    {
      "bufferView": 2,
      "byteOffset": 2015592,
      "componentType": 5126,
      "count": 47432,
      "max": [
        567.768798828125,
        555.8902587890625,
        3588.935302734375
      ],
      "min": [
        -580.1898193359375,
        -592.7960815429688,
        5.152090549468994
      ],
      "type": "VEC3"
    },
    {
      "bufferView": 2,
      "byteOffset": 2584776,
      "componentType": 5126,
      "count": 47432,
      "max": [
        1.0,
        1.0,
        1.0
      ],
      "min": [
        -1.0,
        -1.0,
        -1.0
      ],
      "type": "VEC3"
    },
    {
      "bufferView": 3,
      "byteOffset": 1340688,
      "componentType": 5126,
      "count": 47432,
      "max": [
        1.0,
        1.0,
        1.0,
        1.0
      ],
      "min": [
        -1.0,
        -1.0,
        -1.0,
        -1.0
      ],
      "type": "VEC4"
    },
    {
      "bufferView": 1,
      "byteOffset": 2089312,
      "componentType": 5126,
      "count": 47432,
      "max": [
        3.9375,
        4.740234375
      ],
      "min": [
        -2.91015625,
        -1.671875
      ],
      "type": "VEC2"
    },
    {
      "bufferView": 1,
      "byteOffset": 2468768,
      "componentType": 5126,
      "count": 47432,
      "max": [
        3.9375,
        4.740234375
      ],
      "min": [
        -2.91015625,
        -1.671875
      ],
      "type": "VEC2"
    },
    {
      "bufferView": 1,
      "byteOffset": 2848224,
      "componentType": 5126,
      "count": 47432,
      "max": [
        0.0,
        1.0
      ],
      "min": [
        0.0,
        1.0
      ],
      "type": "VEC2"
    },
    {
      "bufferView": 0,
      "byteOffset": 1143960,
      "componentType": 5125,
      "count": 135360,
      "type": "SCALAR"
    },
    {
      "bufferView": 2,
      "byteOffset": 3153960,
      "componentType": 5126,
      "count": 32738,
      "max": [
        527.6121826171875,
        518.4649658203125,
        3565.718505859375
      ],
      "min": [
        -549.3917236328125,
        -558.538330078125,
        9.719807624816895
      ],
      "type": "VEC3"
    },
    {
      "bufferView": 2,
      "byteOffset": 3546816,
      "componentType": 5126,
      "count": 32738,
      "max": [
        1.0,
        1.0,
        1.0
      ],
      "min": [
        -1.0,
        -1.0,
        -1.0
      ],
      "type": "VEC3"
    },
    {
      "bufferView": 3,
      "byteOffset": 2099600,
      "componentType": 5126,
      "count": 32738,
      "max": [
        1.0,
        1.0,
        1.0,
        1.0
      ],
      "min": [
        -1.0,
        -1.0,
        -1.0,
        1.0
      ],
      "type": "VEC4"
    },
    {
      "bufferView": 1,
      "byteOffset": 3227680,
      "componentType": 5126,
      "count": 32738,
      "max": [
        5.890625,
        6.0078125
      ],
      "min": [
        -4.98828125,
        -4.8671875
      ],
      "type": "VEC2"
    },
    {
      "bufferView": 1,
      "byteOffset": 3489584,
      "componentType": 5126,
      "count": 32738,
      "max": [
        0.0,
        1.0
      ],
      "min": [
        0.0,
        1.0
      ],
      "type": "VEC2"
    },
    {
      "bufferView": 1,
      "byteOffset": 3751488,
      "componentType": 5126,
      "count": 32738,
      "max": [
        5.890625,
        6.0078125
      ],
      "min": [
        -4.98828125,
        -4.8671875
      ],
      "type": "VEC2"
    },
    {
      "bufferView": 0,
      "byteOffset": 1685400,
      "componentType": 5125,
      "count": 75744,
      "type": "SCALAR"
    },
    {
      "bufferView": 2,
      "byteOffset": 3939672,
      "componentType": 5126,
      "count": 105,
      "max": [
        473.947998046875,
        467.8965759277344,
        16.001834869384766
      ],
      "min": [
        -505.2649230957031,
        -508.1668395996094,
        -0.11241595447063446
      ],
      "type": "VEC3"
    },
    {
      "bufferView": 2,
      "byteOffset": 3940932,
      "componentType": 5126,
      "count": 105,
      "max": [
        1.0,
        1.0,
        1.0
      ],
      "min": [
        -1.0,
        -1.0,
        0.0
      ],
      "type": "VEC3"
    },
    {
      "bufferView": 3,
      "byteOffset": 2623408,
      "componentType": 5126,
      "count": 105,
      "max": [
        1.8938688981506857e-06,
        0.0,
        1.0,
        1.0
      ],
      "min": [
        -3.7877373415540205e-06,
        -1.0,
        -1.0,
        1.0
      ],
      "type": "VEC4"
    },
    {
      "bufferView": 1,
      "byteOffset": 4013392,
      "componentType": 5126,
      "count": 105,
      "max": [
        1.7587890625,
        1.75
      ],
      "min": [
        -0.7509765625,
        -0.7666015625
      ],
      "type": "VEC2"
    },
    {
      "bufferView": 1,
      "byteOffset": 4014232,
      "componentType": 5126,
      "count": 105,
      "max": [
        0.0,
        1.0
      ],
      "min": [
        0.0,
        1.0
      ],
      "type": "VEC2"
    },
    {
      "bufferView": 1,
      "byteOffset": 4015072,
      "componentType": 5126,
      "count": 105,
      "max": [
        1.7587890625,
        1.75
      ],
      "min": [
        -0.7509765625,
        -0.7666015625
      ],
      "type": "VEC2"
    },
    {
      "bufferView": 0,
      "byteOffset": 1988376,
      "componentType": 5125,
      "count": 360,
      "type": "SCALAR"
    },
    {
      "bufferView": 2,
      "byteOffset": 3942192,
      "componentType": 5126,
      "count": 712,
      "max": [
        393.0970153808594,
        371.8167419433594,
        3614.205078125
      ],
      "min": [
        -433.59698486328125,
        -405.7913513183594,
        22.816883087158203
      ],
      "type": "VEC3"
    },
    {
      "bufferView": 2,
      "byteOffset": 3950736,
      "componentType": 5126,
      "count": 712,
      "max": [
        0.0,
        0.0,
        1.0
      ],
      "min": [
        0.0,
        0.0,
        -1.0
      ],
      "type": "VEC3"
    },
    {
      "bufferView": 3,
      "byteOffset": 2625088,
      "componentType": 5126,
      "count": 712,
      "max": [
        1.0,
        0.6657923460006714,
        0.0,
        1.0
      ],
      "min": [
        -0.7472577095031738,
        -0.6657928824424744,
        0.0,
        -1.0
      ],
      "type": "VEC4"
    },
    {
      "bufferView": 1,
      "byteOffset": 4015912,
      "componentType": 5126,
      "count": 712,
      "max": [
        0.99462890625,
        2.3427734375
      ],
      "min": [
        -1.330078125,
        -1.34375
      ],
      "type": "VEC2"
    },
    {
      "bufferView": 1,
      "byteOffset": 4021608,
      "componentType": 5126,
      "count": 712,
      "max": [
        0.99462890625,
        2.3427734375
      ],
      "min": [
        -1.330078125,
        -1.34375
      ],
      "type": "VEC2"
    },
    {
      "bufferView": 1,
      "byteOffset": 4027304,
      "componentType": 5126,
      "count": 712,
      "max": [
        0.0,
        1.0
      ],
      "min": [
        0.0,
        1.0
      ],
      "type": "VEC2"
    },
    {
      "bufferView": 1,
      "byteOffset": 4033000,
      "componentType": 5126,
      "count": 712,
      "max": [
        0.99462890625,
        2.3427734375
      ],
      "min": [
        -1.330078125,
        -1.34375
      ],
      "type": "VEC2"
    },
    {
      "bufferView": 0,
      "byteOffset": 1989816,
      "componentType": 5125,
      "count": 1068,
      "type": "SCALAR"
    },
    {
      "bufferView": 2,
      "byteOffset": 3959280,
      "componentType": 5126,
      "count": 1511,
      "max": [
        466.52008056640625,
        438.4892578125,
        4612.61279296875
      ],
      "min": [
        -501.66278076171875,
        -489.54266357421875,
        3568.515380859375
      ],
      "type": "VEC3"
    },
    {
      "bufferView": 2,
      "byteOffset": 3977412,
      "componentType": 5126,
      "count": 1511,
      "max": [
        1.0,
        1.0,
        1.0
      ],
      "min": [
        -1.0,
        -1.0,
        -1.0
      ],
      "type": "VEC3"
    },
    {
      "bufferView": 3,
      "byteOffset": 2636480,
      "componentType": 5126,
      "count": 1511,
      "max": [
        1.0,
        1.0,
        1.0,
        1.0
      ],
      "min": [
        -1.0,
        -1.0,
        -1.0,
        1.0
      ],
      "type": "VEC4"
    },
    {
      "bufferView": 1,
      "byteOffset": 4038696,
      "componentType": 5126,
      "count": 1511,
      "max": [
        2.38671875,
        2.4091796875
      ],
      "min": [
        -1.396484375,
        -1.408203125
      ],
      "type": "VEC2"
    },
    {
      "bufferView": 1,
      "byteOffset": 4050784,
      "componentType": 5126,
      "count": 1511,
      "max": [
        0.0,
        1.0
      ],
      "min": [
        0.0,
        1.0
      ],
      "type": "VEC2"
    },
    {
      "bufferView": 1,
      "byteOffset": 4062872,
      "componentType": 5126,
      "count": 1511,
      "max": [
        2.38671875,
        2.4091796875
      ],
      "min": [
        -1.396484375,
        -1.408203125
      ],
      "type": "VEC2"
    },
    {
      "bufferView": 0,
      "byteOffset": 1994088,
      "componentType": 5125,
      "count": 3726,
      "type": "SCALAR"
    },
    {
      "bufferView": 2,
      "byteOffset": 3995544,
      "componentType": 5126,
      "count": 4477,
      "max": [
        258.542236328125,
        425.8002624511719,
        1408.908203125
      ],
      "min": [
        -251.6233367919922,
        -339.20611572265625,
        -9.017751693725586
      ],
      "type": "VEC3"
    },
    {
      "bufferView": 2,
      "byteOffset": 4049268,
      "componentType": 5126,
      "count": 4477,
      "max": [
        1.0,
        1.0,
        1.0
      ],
      "min": [
        -1.0,
        -1.0,
        -1.0
      ],
      "type": "VEC3"
    },
    {
      "bufferView": 3,
      "byteOffset": 2660656,
      "componentType": 5126,
      "count": 4477,
      "max": [
        1.0,
        1.0,
        1.0,
        1.0
      ],
      "min": [
        -1.0,
        -1.0,
        -1.0,
        -1.0
      ],
      "type": "VEC4"
    },
    {
      "bufferView": 1,
      "byteOffset": 4074960,
      "componentType": 5126,
      "count": 4477,
      "max": [
        17.015625,
        2.009765625
      ],
      "min": [
        -11.3203125,
        -5.5625
      ],
      "type": "VEC2"
    },
    {
      "bufferView": 1,
      "byteOffset": 4110776,
      "componentType": 5126,
      "count": 4477,
      "max": [
        0.0,
        1.0
      ],
      "min": [
        0.0,
        1.0
      ],
      "type": "VEC2"
    },
    {
      "bufferView": 1,
      "byteOffset": 4146592,
      "componentType": 5126,
      "count": 4477,
      "max": [
        17.015625,
        2.009765625
      ],
      "min": [
        -11.3203125,
        -5.5625
      ],
      "type": "VEC2"
    },
    {
      "bufferView": 0,
      "byteOffset": 2008992,
      "componentType": 5125,
      "count": 10488,
      "type": "SCALAR"
    },
    {
      "bufferView": 2,
      "byteOffset": 4102992,
      "componentType": 5126,
      "count": 11143,
      "max": [
        690.3287353515625,
        693.9111328125,
        3225.48828125
      ],
      "min": [
        -707.2769775390625,
        -677.17919921875,
        943.6217651367188
      ],
      "type": "VEC3"
    },
    {
      "bufferView": 2,
      "byteOffset": 4236708,
      "componentType": 5126,
      "count": 11143,
      "max": [
        0.9999690055847168,
        1.0,
        1.0
      ],
      "min": [
        -0.9999690055847168,
        -1.0,
        -1.0
      ],
      "type": "VEC3"
    },
    {
      "bufferView": 3,
      "byteOffset": 2732288,
      "componentType": 5126,
      "count": 11143,
      "max": [
        1.0,
        0.9999999403953552,
        0.9801781177520752,
        1.0
      ],
      "min": [
        -0.9999690651893616,
        -0.9999917149543762,
        -0.9999639987945557,
        -1.0
      ],
      "type": "VEC4"
    },
    {
      "bufferView": 1,
      "byteOffset": 4182408,
      "componentType": 5126,
      "count": 11143,
      "max": [
        0.9931640625,
        0.9958992004394531
      ],
      "min": [
        0.00569915771484375,
        0.0029296875
      ],
      "type": "VEC2"
    },
    {
      "bufferView": 1,
      "byteOffset": 4271552,
      "componentType": 5126,
      "count": 11143,
      "max": [
        0.0,
        1.0
      ],
      "min": [
        0.0,
        1.0
      ],
      "type": "VEC2"
    },
    {
      "bufferView": 1,
      "byteOffset": 4360696,
      "componentType": 5126,
      "count": 11143,
      "max": [
        0.9931640625,
        0.9958992004394531
      ],
      "min": [
        0.00569915771484375,
        0.0029296875
      ],
      "type": "VEC2"
    },
    {
      "bufferView": 0,
      "byteOffset": 2050944,
      "componentType": 5125,
      "count": 28116,
      "type": "SCALAR"
    }
  ],
  "asset": {
    "extras": {
      "author": "Veterock (https://sketchfab.com/windofglass)",
      "license": "CC-BY-4.0 (http://creativecommons.org/licenses/by/4.0/)",
      "source": "https://sketchfab.com/3d-models/repeater-radio-tower-updated-f17b20e7e13546efac44aff1f097ef25",
      "title": "Repeater Radio Tower (updated)"
    },
    "generator": "Sketchfab-16.64.0",
    "version": "2.0"
  },
  "bufferViews": [
    {
      "buffer": 0,
      "byteLength": 2163408,
      "name": "floatBufferViews",
      "target": 34963
    },
    {
      "buffer": 0,
      "byteLength": 4449840,
      "byteOffset": 2163408,
      "byteStride": 8,
      "name": "floatBufferViews",
      "target": 34962
    },
    {
      "buffer": 0,
      "byteLength": 4370424,
      "byteOffset": 6613248,
      "byteStride": 12,
      "name": "floatBufferViews",
      "target": 34962
    },
    {
      "buffer": 0,
      "byteLength": 2910576,
      "byteOffset": 10983672,
      "byteStride": 16,
      "name": "floatBufferViews",
      "target": 34962
    }
  ],
  "buffers": [
    {
      "byteLength": 13894248,
      "uri": "scene.bin"
    }
  ],
  "extensionsUsed": [
    "KHR_materials_emissive_strength"
  ],
  "images": [
    {
      "uri": "textures/ground_m_baseColor.jpeg"
    },
    {
      "uri": "textures/ground_m_normal.png"
    },
    {
      "uri": "textures/noentry_m_baseColor.jpeg"
    },
    {
      "uri": "textures/frame_m_baseColor.jpeg"
    },
    {
      "uri": "textures/frame_m_normal.png"
    },
    {
      "uri": "textures/wire_m_baseColor.png"
    },
    {
      "uri": "textures/wire_m_normal.png"
    },
    {
      "uri": "textures/box_m_baseColor.jpeg"
    },
    {
      "uri": "textures/box_m_normal.png"
    },
    {
      "uri": "textures/bolts_m_baseColor.jpeg"
    },
    {
      "uri": "textures/bolts_m_normal.png"
    },
    {
      "uri": "textures/signs_m_baseColor.jpeg"
    },
    {
      "uri": "textures/signs_m_normal.png"
    },
    {
      "uri": "textures/cam_m_baseColor.jpeg"
    },
    {
      "uri": "textures/cam_m_normal.png"
    },
    {
      "uri": "textures/ant_b_m_baseColor.jpeg"
    },
    {
      "uri": "textures/ant_b_m_normal.png"
    },
    {
      "uri": "textures/plastic_m_normal.png"
    },
    {
      "uri": "textures/metal_m_baseColor.jpeg"
    },
    {
      "uri": "textures/metal_m_normal.png"
    },
    {
      "uri": "textures/rustmetal_m_baseColor.jpeg"
    },
    {
      "uri": "textures/rustmetal_m_normal.png"
    },
    {
      "uri": "textures/bottom_m_baseColor.jpeg"
    },
    {
      "uri": "textures/bottom_m_normal.png"
    },
    {
      "uri": "textures/floor_m_baseColor.png"
    },
    {
      "uri": "textures/floor_m_normal.png"
    },
    {
      "uri": "textures/ant_A_m_baseColor.jpeg"
    },
    {
      "uri": "textures/ant_A_m_normal.png"
    }
  ],
  "materials": [
    {
      "doubleSided": true,
      "name": "ground_m",
      "normalTexture": {
        "index": 1
      },
      "pbrMetallicRoughness": {
        "baseColorTexture": {
          "index": 0
        },
        "metallicFactor": 0.0,
        "roughnessFactor": 0.9796504225936239
      }
    },
    {
      "doubleSided": true,
      "name": "noentry_m",
      "pbrMetallicRoughness": {
        "baseColorTexture": {
          "index": 2
        },
        "metallicFactor": 0.0,
        "roughnessFactor": 0.9796504225936239
      }
    },
    {
      "doubleSided": true,
      "name": "frame_m",
      "normalTexture": {
        "index": 4
      },
      "pbrMetallicRoughness": {
        "baseColorTexture": {
          "index": 3
        },
        "metallicFactor": 0.0,
        "roughnessFactor": 0.9796504225936239
      }
    },
    {
      "alphaCutoff": 0.4860967195328595,
      "alphaMode": "MASK",
      "doubleSided": true,
      "name": "wire_m",
      "normalTexture": {
        "index": 6
      },
      "pbrMetallicRoughness": {
        "baseColorFactor": [
          0.0,
          0.0,
          0.0,
          1.0
        ],
        "baseColorTexture": {
          "index": 5
        },
        "metallicFactor": 0.0,
        "roughnessFactor": 0.9796504225936239
      }
    },
    {
      "doubleSided": true,
      "name": "box_m",
      "normalTexture": {
        "index": 8
      },
      "pbrMetallicRoughness": {
        "baseColorTexture": {
          "index": 7
        },
        "metallicFactor": 0.0,
        "roughnessFactor": 0.9796504225936239
      }
    },
    {
      "doubleSided": true,
      "name": "bolts_m",
      "normalTexture": {
        "index": 10
      },
      "pbrMetallicRoughness": {
        "baseColorTexture": {
          "index": 9
        },
        "metallicFactor": 0.0,
        "roughnessFactor": 0.9796504225936239
      }
    },
    {
      "doubleSided": true,
      "name": "signs_m",
      "normalTexture": {
        "index": 12
      },
      "pbrMetallicRoughness": {
        "baseColorTexture": {
          "index": 11
        },
        "metallicFactor": 0.0,
        "roughnessFactor": 0.9796504225936239
      }
    },
    {
      "doubleSided": true,
      "name": "cam_m",
      "normalTexture": {
        "index": 14
      },
      "pbrMetallicRoughness": {
        "baseColorTexture": {
          "index": 13
        },
        "metallicFactor": 0.0,
        "roughnessFactor": 0.9796504225936239
      }
    },
    {
      "doubleSided": true,
      "emissiveFactor": [
        0.486275,
        0.0,
        0.0
      ],
      "extensions": {
        "KHR_materials_emissive_strength": {
          "emissiveStrength": 6.08001852958028
        }
      },
      "name": "redlight_m",
      "pbrMetallicRoughness": {
        "baseColorFactor": [
          0.48515,
          0.0,
          0.0,
          1.0
        ],
        "metallicFactor": 0.0
      }
    },
    {
      "alphaMode": "BLEND",
      "doubleSided": true,
      "name": "ClearGlass_m",
      "pbrMetallicRoughness": {
        "baseColorFactor": [
          1.0,
          1.0,
          1.0,
          0.1386670892711292
        ],
        "metallicFactor": 0.0,
        "roughnessFactor": 0.03504772585973595
      }
    },
    {
      "doubleSided": true,
      "name": "ant_b_m",
      "normalTexture": {
        "index": 16
      },
      "pbrMetallicRoughness": {
        "baseColorTexture": {
          "index": 15
        },
        "metallicFactor": 0.0,
        "roughnessFactor": 0.9796504225936239
      }
    },
    {
      "doubleSided": true,
      "name": "plastic_m",
      "normalTexture": {
        "index": 17
      },
      "pbrMetallicRoughness": {
        "baseColorFactor": [
          0.945098,
          0.945098,
          0.945098,
          1.0
        ],
        "metallicFactor": 0.0,
        "roughnessFactor": 0.9789327981611085
      }
    },
    {
      "doubleSided": true,
      "name": "metal_m",
      "normalTexture": {
        "index": 19,
        "texCoord": 1
      },
      "pbrMetallicRoughness": {
        "baseColorTexture": {
          "index": 18
        },
        "metallicFactor": 0.0,
        "roughnessFactor": 0.9796504225936239
      }
    },
    {
      "doubleSided": true,
      "name": "rustmetal_m",
      "normalTexture": {
        "index": 21
      },
      "pbrMetallicRoughness": {
        "baseColorTexture": {
          "index": 20
        },
        "metallicFactor": 0.0,
        "roughnessFactor": 0.9796504225936239
      }
    },
    {
      "doubleSided": true,
      "name": "bottom_m",
      "normalTexture": {
        "index": 23
      },
      "pbrMetallicRoughness": {
        "baseColorTexture": {
          "index": 22
        },
        "metallicFactor": 0.0,
        "roughnessFactor": 0.9796504225936239
      }
    },
    {
      "alphaMode": "BLEND",
      "doubleSided": true,
      "name": "floor_m",
      "normalTexture": {
        "index": 25
      },
      "pbrMetallicRoughness": {
        "baseColorTexture": {
          "index": 24
        },
        "metallicFactor": 0.0,
        "roughnessFactor": 0.9796504225936239
      }
    },
    {
      "doubleSided": true,
      "name": "metal_m_0",
      "normalTexture": {
        "index": 19
      },
      "pbrMetallicRoughness": {
        "baseColorTexture": {
          "index": 18
        },
        "metallicFactor": 0.0,
        "roughnessFactor": 0.9577051494623774
      }
    },
    {
      "doubleSided": true,
      "name": "rustmetal_m_0",
      "normalTexture": {
        "index": 21
      },
      "pbrMetallicRoughness": {
        "baseColorTexture": {
          "index": 20
        },
        "metallicFactor": 0.0,
        "roughnessFactor": 0.9577051494623774
      }
    },
    {
      "doubleSided": true,
      "name": "ant_A_m",
      "normalTexture": {
        "index": 27
      },
      "pbrMetallicRoughness": {
        "baseColorTexture": {
          "index": 26
        },
        "metallicFactor": 0.0,
        "roughnessFactor": 0.9796504225936239
      }
    }
  ],
  "meshes": [
    {
      "name": "Ground_ground_m_0",
      "primitives": [
        {
          "attributes": {
            "NORMAL": 1,
            "POSITION": 0,
            "TANGENT": 2,
            "TEXCOORD_0": 3,
            "TEXCOORD_1": 4,
            "TEXCOORD_2": 5,
            "TEXCOORD_3": 6
          },
          "indices": 7,
          "material": 0,
          "mode": 4
        }
      ]
    },
    {
      "name": "Fence_noentry_m_0",
      "primitives": [
        {
          "attributes": {
            "NORMAL": 9,
            "POSITION": 8,
            "TEXCOORD_0": 10,
            "TEXCOORD_1": 11,
            "TEXCOORD_2": 12
          },
          "indices": 13,
          "material": 1,
          "mode": 4
        }
      ]
    },
    {
      "name": "Fence_frame_m_0",
      "primitives": [
        {
          "attributes": {
            "NORMAL": 15,
            "POSITION": 14,
            "TANGENT": 16,
            "TEXCOORD_0": 17,
            "TEXCOORD_1": 18,
            "TEXCOORD_2": 19,
            "TEXCOORD_3": 20
          },
          "indices": 21,
          "material": 2,
          "mode": 4
        }
      ]
    },
    {
      "name": "Fence_wire_m_0",
      "primitives": [
        {
          "attributes": {
            "NORMAL": 23,
            "POSITION": 22,
            "TANGENT": 24,
            "TEXCOORD_0": 25,
            "TEXCOORD_1": 26,
            "TEXCOORD_2": 27,
            "TEXCOORD_3": 28,
            "TEXCOORD_4": 29
          },
          "indices": 30,
          "material": 3,
          "mode": 4
        }
      ]
    },
    {
      "name": "ElectricBox_box_m_0",
      "primitives": [
        {
          "attributes": {
            "NORMAL": 32,
            "POSITION": 31,
            "TANGENT": 33,
            "TEXCOORD_0": 34,
            "TEXCOORD_1": 35,
            "TEXCOORD_2": 36,
            "TEXCOORD_3": 37
          },
          "indices": 38,
          "material": 4,
          "mode": 4
        }
      ]
    },
    {
      "name": "ElectricBox_bolts_m_0",
      "primitives": [
        {
          "attributes": {
            "NORMAL": 40,
            "POSITION": 39,
            "TANGENT": 41,
            "TEXCOORD_0": 42,
            "TEXCOORD_1": 43,
            "TEXCOORD_2": 44,
            "TEXCOORD_3": 45,
            "TEXCOORD_4": 46
          },
          "indices": 47,
          "material": 5,
          "mode": 4
        }
      ]
    },
    {
      "name": "ElectricBox_signs_m_0",
      "primitives": [
        {
          "attributes": {
            "NORMAL": 49,
            "POSITION": 48,
            "TANGENT": 50,
            "TEXCOORD_0": 51,
            "TEXCOORD_1": 52,
            "TEXCOORD_2": 53,
            "TEXCOORD_3": 54
          },
          "indices": 55,
          "material": 6,
          "mode": 4
        }
      ]
    },
    {
      "name": "Door1_frame_m_0",
      "primitives": [
        {
          "attributes": {
            "NORMAL": 57,
            "POSITION": 56,
            "TANGENT": 58,
            "TEXCOORD_0": 59,
            "TEXCOORD_1": 60,
            "TEXCOORD_2": 61,
            "TEXCOORD_3": 62
          },
          "indices": 63,
          "material": 2,
          "mode": 4
        }
      ]
    },
    {
      "name": "Door1_bolts_m_0",
      "primitives": [
        {
          "attributes": {
            "NORMAL": 65,
            "POSITION": 64,
            "TANGENT": 66,
            "TEXCOORD_0": 67,
            "TEXCOORD_1": 68,
            "TEXCOORD_2": 69,
            "TEXCOORD_3": 70,
            "TEXCOORD_4": 71
          },
          "indices": 72,
          "material": 5,
          "mode": 4
        }
      ]
    },
    {
      "name": "Door1_wire_m_0",
      "primitives": [
        {
          "attributes": {
            "NORMAL": 74,
            "POSITION": 73,
            "TANGENT": 75,
            "TEXCOORD_0": 76,
            "TEXCOORD_1": 77,
            "TEXCOORD_2": 78,
            "TEXCOORD_3": 79,
            "TEXCOORD_4": 80
          },
          "indices": 81,
          "material": 3,
          "mode": 4
        }
      ]
    },
    {
      "name": "Door2_frame_m_0",
      "primitives": [
        {
          "attributes": {
            "NORMAL": 83,
            "POSITION": 82,
            "TANGENT": 84,
            "TEXCOORD_0": 85,
            "TEXCOORD_1": 86,
            "TEXCOORD_2": 87,
            "TEXCOORD_3": 88
          },
          "indices": 89,
          "material": 2,
          "mode": 4
        }
      ]
    },
    {
      "name": "Door2_bolts_m_0",
      "primitives": [
        {
          "attributes": {
            "NORMAL": 91,
            "POSITION": 90,
            "TANGENT": 92,
            "TEXCOORD_0": 93,
            "TEXCOORD_1": 94,
            "TEXCOORD_2": 95,
            "TEXCOORD_3": 96,
            "TEXCOORD_4": 97
          },
          "indices": 98,
          "material": 5,
          "mode": 4
        }
      ]
    },
    {
      "name": "Door2_wire_m_0",
      "primitives": [
        {
          "attributes": {
            "NORMAL": 100,
            "POSITION": 99,
            "TANGENT": 101,
            "TEXCOORD_0": 102,
            "TEXCOORD_1": 103,
            "TEXCOORD_2": 104,
            "TEXCOORD_3": 105,
            "TEXCOORD_4": 106
          },
          "indices": 107,
          "material": 3,
          "mode": 4
        }
      ]
    },
    {
      "name": "CameraMount_cam_m_0",
      "primitives": [
        {
          "attributes": {
            "NORMAL": 109,
            "POSITION": 108,
            "TANGENT": 110,
            "TEXCOORD_0": 111,
            "TEXCOORD_1": 112,
            "TEXCOORD_2": 113,
            "TEXCOORD_3": 114
          },
          "indices": 115,
          "material": 7,
          "mode": 4
        }
      ]
    },
    {
      "name": "Camera_cam_m_0",
      "primitives": [
        {
          "attributes": {
            "NORMAL": 117,
            "POSITION": 116,
            "TANGENT": 118,
            "TEXCOORD_0": 119,
            "TEXCOORD_1": 120,
            "TEXCOORD_2": 121,
            "TEXCOORD_3": 122
          },
          "indices": 123,
          "material": 7,
          "mode": 4
        }
      ]
    },
    {
      "name": "Camera_redlight_m_0",
      "primitives": [
        {
          "attributes": {
            "NORMAL": 125,
            "POSITION": 124,
            "TEXCOORD_0": 126,
            "TEXCOORD_1": 127,
            "TEXCOORD_2": 128
          },
          "indices": 129,
          "material": 8,
          "mode": 4
        }
      ]
    },
    {
      "name": "Camera_ClearGlass_m_0",
      "primitives": [
        {
          "attributes": {
            "NORMAL": 131,
            "POSITION": 130,
            "TEXCOORD_0": 132,
            "TEXCOORD_1": 133,
            "TEXCOORD_2": 134
          },
          "indices": 135,
          "material": 9,
          "mode": 4
        }
      ]
    },
    {
      "name": "Tower_bolts_m_0",
      "primitives": [
        {
          "attributes": {
            "NORMAL": 137,
            "POSITION": 136,
            "TANGENT": 138,
            "TEXCOORD_0": 139,
            "TEXCOORD_1": 140,
            "TEXCOORD_2": 141,
            "TEXCOORD_3": 142
          },
          "indices": 143,
          "material": 5,
          "mode": 4
        }
      ]
    },
    {
      "name": "Tower_ant_b_m_0",
      "primitives": [
        {
          "attributes": {
            "NORMAL": 145,
            "POSITION": 144,
            "TANGENT": 146,
            "TEXCOORD_0": 147,
            "TEXCOORD_1": 148,
            "TEXCOORD_2": 149
          },
          "indices": 150,
          "material": 10,
          "mode": 4
        }
      ]
    },
    {
      "name": "Tower_plastic_m_0",
      "primitives": [
        {
          "attributes": {
            "NORMAL": 152,
            "POSITION": 151,
            "TANGENT": 153,
            "TEXCOORD_0": 154,
            "TEXCOORD_1": 155
          },
          "indices": 156,
          "material": 11,
          "mode": 4
        }
      ]
    },
    {
      "name": "Tower_metal_m_0",
      "primitives": [
        {
          "attributes": {
            "NORMAL": 158,
            "POSITION": 157,
            "TANGENT": 159,
            "TEXCOORD_0": 160,
            "TEXCOORD_1": 161,
            "TEXCOORD_2": 162
          },
          "indices": 163,
          "material": 12,
          "mode": 4
        }
      ]
    },
    {
      "name": "Tower_metal_m_0",
      "primitives": [
        {
          "attributes": {
            "NORMAL": 165,
            "POSITION": 164,
            "TANGENT": 166,
            "TEXCOORD_0": 167,
            "TEXCOORD_1": 168,
            "TEXCOORD_2": 169
          },
          "indices": 170,
          "material": 12,
          "mode": 4
        }
      ]
    },
    {
      "name": "Tower_rustmetal_m_0",
      "primitives": [
        {
          "attributes": {
            "NORMAL": 172,
            "POSITION": 171,
            "TANGENT": 173,
            "TEXCOORD_0": 174,
            "TEXCOORD_1": 175,
            "TEXCOORD_2": 176
          },
          "indices": 177,
          "material": 13,
          "mode": 4
        }
      ]
    },
    {
      "name": "Tower_bottom_m_0",
      "primitives": [
        {
          "attributes": {
            "NORMAL": 179,
            "POSITION": 178,
            "TANGENT": 180,
            "TEXCOORD_0": 181,
            "TEXCOORD_1": 182,
            "TEXCOORD_2": 183
          },
          "indices": 184,
          "material": 14,
          "mode": 4
        }
      ]
    },
    {
      "name": "Tower_floor_m_0",
      "primitives": [
        {
          "attributes": {
            "NORMAL": 186,
            "POSITION": 185,
            "TANGENT": 187,
            "TEXCOORD_0": 188,
            "TEXCOORD_1": 189,
            "TEXCOORD_2": 190,
            "TEXCOORD_3": 191
          },
          "indices": 192,
          "material": 15,
          "mode": 4
        }
      ]
    },
    {
      "name": "Tower_metal_m_0",
      "primitives": [
        {
          "attributes": {
            "NORMAL": 194,
            "POSITION": 193,
            "TANGENT": 195,
            "TEXCOORD_0": 196,
            "TEXCOORD_1": 197,
            "TEXCOORD_2": 198
          },
          "indices": 199,
          "material": 16,
          "mode": 4
        }
      ]
    },
    {
      "name": "Tower_rustmetal_m_0",
      "primitives": [
        {
          "attributes": {
            "NORMAL": 201,
            "POSITION": 200,
            "TANGENT": 202,
            "TEXCOORD_0": 203,
            "TEXCOORD_1": 204,
            "TEXCOORD_2": 205
          },
          "indices": 206,
          "material": 17,
          "mode": 4
        }
      ]
    },
    {
      "name": "Tower_ant_A_m_0",
      "primitives": [
        {
          "attributes": {
            "NORMAL": 208,
            "POSITION": 207,
            "TANGENT": 209,
            "TEXCOORD_0": 210,
            "TEXCOORD_1": 211,
            "TEXCOORD_2": 212
          },
          "indices": 213,
          "material": 18,
          "mode": 4
        }
      ]
    }
  ],
  "nodes": [
    {
      "children": [
        1
      ],
      "matrix": [
        1.0,
        0.0,
        0.0,
        0.0,
        0.0,
        2.220446049250313e-16,
        -1.0,
        0.0,
        0.0,
        1.0,
        2.220446049250313e-16,
        0.0,
        0.0,
        0.0,
        0.0,
        1.0
      ],
      "name": "Sketchfab_model"
    },
    {
      "children": [
        2
      ],
      "matrix": [
        1.0,
        0.0,
        0.0,
        0.0,
        0.0,
        0.0,
        1.0,
        0.0,
        0.0,
        -1.0,
        0.0,
        0.0,
        0.0,
        0.0,
        0.0,
        1.0
      ],
      "name": "RelayTower.FBX"
    },
    {
      "children": [
        3,
        5,
        9,
        13,
        17,
        21,
        23,
        27
      ],
      "name": "RootNode"
    },
    {
      "children": [
        4
      ],
      "matrix": [
        0.009999999776482582,
        0.0,
        0.0,
        0.0,
        0.0,
        2.2204459996194763e-18,
        -0.009999999776482582,
        0.0,
        0.0,
        0.009999999776482582,
        2.2204459996194763e-18,
        0.0,
        0.0,
        0.0,
        0.0,
        1.0
      ],
      "name": "Ground"
    },
    {
      "mesh": 0,
      "name": "Ground_ground_m_0"
    },
    {
      "children": [
        6,
        7,
        8
      ],
      "matrix": [
        0.009999999776482582,
        0.0,
        0.0,
        0.0,
        0.0,
        2.2204459996194763e-18,
        -0.009999999776482582,
        0.0,
        0.0,
        0.009999999776482582,
        2.2204459996194763e-18,
        0.0,
        0.0,
        0.0,
        0.0,
        1.0
      ],
      "name": "Fence"
    },
    {
      "mesh": 1,
      "name": "Fence_noentry_m_0"
    },
    {
      "mesh": 2,
      "name": "Fence_frame_m_0"
    },
    {
      "mesh": 3,
      "name": "Fence_wire_m_0"
    },
    {
      "children": [
        10,
        11,
        12
      ],
      "matrix": [
        0.009999999776482582,
        0.0,
        0.0,
        0.0,
        0.0,
        2.2204459996194763e-18,
        -0.009999999776482582,
        0.0,
        0.0,
        0.009999999776482582,
        2.2204459996194763e-18,
        0.0,
        0.0,
        0.0,
        0.0,
        1.0
      ],
      "name": "ElectricBox"
    },
    {
      "mesh": 4,
      "name": "ElectricBox_box_m_0"
    },
    {
      "mesh": 5,
      "name": "ElectricBox_bolts_m_0"
    },
    {
      "mesh": 6,
      "name": "ElectricBox_signs_m_0"
    },
    {
      "children": [
        14,
        15,
        16
      ],
      "matrix": [
        0.009999999776482582,
        0.0,
        0.0,
        0.0,
        0.0,
        2.2204459996194763e-18,
        -0.009999999776482582,
        0.0,
        0.0,
        0.009999999776482582,
        2.2204459996194763e-18,
        0.0,
        0.0,
        0.0,
        0.0,
        1.0
      ],
      "name": "Door1"
    },
    {
      "mesh": 7,
      "name": "Door1_frame_m_0"
    },
    {
      "mesh": 8,
      "name": "Door1_bolts_m_0"
    },
    {
      "mesh": 9,
      "name": "Door1_wire_m_0"
    },
    {
      "children": [
        18,
        19,
        20
      ],
      "matrix": [
        0.009999999776482582,
        0.0,
        0.0,
        0.0,
        0.0,
        2.2204459996194763e-18,
        -0.009999999776482582,
        0.0,
        0.0,
        0.009999999776482582,
        2.2204459996194763e-18,
        0.0,
        0.0,
        0.0,
        0.0,
        1.0
      ],
      "name": "Door2"
    },
    {
      "mesh": 10,
      "name": "Door2_frame_m_0"
    },
    {
      "mesh": 11,
      "name": "Door2_bolts_m_0"
    },
    {
      "mesh": 12,
      "name": "Door2_wire_m_0"
    },
    {
      "children": [
        22
      ],
      "matrix": [
        0.009999999776482582,
        0.0,
        0.0,
        0.0,
        0.0,
        2.2204459996194763e-18,
        -0.009999999776482582,
        0.0,
        0.0,
        0.009999999776482582,
        2.2204459996194763e-18,
        0.0,
        0.0,
        0.0,
        0.0,
        1.0
      ],
      "name": "CameraMount"
    },
    {
      "mesh": 13,
      "name": "CameraMount_cam_m_0"
    },
    {
      "children": [
        24,
        25,
        26
      ],
      "matrix": [
        0.009999999776482582,
        0.0,
        0.0,
        0.0,
        0.0,
        2.2204459996194763e-18,
        -0.009999999776482582,
        0.0,
        0.0,
        0.009999999776482582,
        2.2204459996194763e-18,
        0.0,
        0.0,
        0.0,
        0.0,
        1.0
      ],
      "name": "Camera"
    },
    {
      "mesh": 14,
      "name": "Camera_cam_m_0"
    },
    {
      "mesh": 15,
      "name": "Camera_redlight_m_0"
    },
    {
      "mesh": 16,
      "name": "Camera_ClearGlass_m_0"
    },
    {
      "children": [
        28,
        29,
        30,
        31,
        32,
        33,
        34,
        35,
        36,
        37,
        38
      ],
      "matrix": [
        0.009999999776482582,
        0.0,
        0.0,
        0.0,
        0.0,
        2.2204459996194763e-18,
        -0.009999999776482582,
        0.0,
        0.0,
        0.009999999776482582,
        2.2204459996194763e-18,
        0.0,
        0.0,
        0.0,
        0.0,
        1.0
      ],
      "name": "Tower"
    },
    {
      "mesh": 17,
      "name": "Tower_bolts_m_0"
    },
    {
      "mesh": 18,
      "name": "Tower_ant_b_m_0"
    },
    {
      "mesh": 19,
      "name": "Tower_plastic_m_0"
    },
    {
      "mesh": 20,
      "name": "Tower_metal_m_0"
    },
    {
      "mesh": 21,
      "name": "Tower_metal_m_0"
    },
    {
      "mesh": 22,
      "name": "Tower_rustmetal_m_0"
    },
    {
      "mesh": 23,
      "name": "Tower_bottom_m_0"
    },
    {
      "mesh": 24,
      "name": "Tower_floor_m_0"
    },
    {
      "mesh": 25,
      "name": "Tower_metal_m_0"
    },
    {
      "mesh": 26,
      "name": "Tower_rustmetal_m_0"
    },
    {
      "mesh": 27,
      "name": "Tower_ant_A_m_0"
    }
  ],
  "samplers": [
    {
      "magFilter": 9729,
      "minFilter": 9987,
      "wrapS": 10497,
      "wrapT": 10497
    }
  ],
  "scene": 0,
  "scenes": [
    {
      "name": "Sketchfab_Scene",
      "nodes": [
        0
      ]
    }
  ],
  "textures": [
    {
      "sampler": 0,
      "source": 0
    },
    {
      "sampler": 0,
      "source": 1
    },
    {
      "sampler": 0,
      "source": 2
    },
    {
      "sampler": 0,
      "source": 3
    },
    {
      "sampler": 0,
      "source": 4
    },
    {
      "sampler": 0,
      "source": 5
    },
    {
      "sampler": 0,
      "source": 6
    },
    {
      "sampler": 0,
      "source": 7
    },
    {
      "sampler": 0,
      "source": 8
    },
    {
      "sampler": 0,
      "source": 9
    },
    {
      "sampler": 0,
      "source": 10
    },
    {
      "sampler": 0,
      "source": 11
    },
    {
      "sampler": 0,
      "source": 12
    },
    {
      "sampler": 0,
      "source": 13
    },
    {
      "sampler": 0,
      "source": 14
    },
    {
      "sampler": 0,
      "source": 15
    },
    {
      "sampler": 0,
      "source": 16
    },
    {
      "sampler": 0,
      "source": 17
    },
    {
      "sampler": 0,
      "source": 18
    },
    {
      "sampler": 0,
      "source": 19
    },
    {
      "sampler": 0,
      "source": 20
    },
    {
      "sampler": 0,
      "source": 21
    },
    {
      "sampler": 0,
      "source": 22
    },
    {
      "sampler": 0,
      "source": 23
    },
    {
      "sampler": 0,
      "source": 24
    },
    {
      "sampler": 0,
      "source": 25
    },
    {
      "sampler": 0,
      "source": 26
    },
    {
      "sampler": 0,
      "source": 27
    }
  ]
}
